%TF.GenerationSoftware,KiCad,Pcbnew,7.0.1*%
%TF.CreationDate,2023-05-14T10:54:03+09:00*%
%TF.ProjectId,trace,74726163-652e-46b6-9963-61645f706362,rev?*%
%TF.SameCoordinates,Original*%
%TF.FileFunction,Profile,NP*%
%FSLAX46Y46*%
G04 Gerber Fmt 4.6, Leading zero omitted, Abs format (unit mm)*
G04 Created by KiCad (PCBNEW 7.0.1) date 2023-05-14 10:54:03*
%MOMM*%
%LPD*%
G01*
G04 APERTURE LIST*
%TA.AperFunction,Profile*%
%ADD10C,0.200000*%
%TD*%
G04 APERTURE END LIST*
D10*
X99637010Y-71354310D02*
G75*
G03*
X100887010Y-70104284I-10J1250010D01*
G01*
X122317566Y-70142500D02*
G75*
G03*
X122317566Y-70142500I-1500000J0D01*
G01*
X159111195Y-72981741D02*
G75*
G03*
X158962226Y-75970978I1250705J-1560659D01*
G01*
X99138010Y-90357884D02*
X99138010Y-145854644D01*
X176638168Y-69355171D02*
X176638168Y-60161876D01*
X164137039Y-68854534D02*
X166137039Y-68854284D01*
X91637016Y-69354024D02*
G75*
G03*
X93637010Y-71354284I1999984J-276D01*
G01*
X167387216Y-70104859D02*
G75*
G03*
X166137039Y-68854284I-1250016J559D01*
G01*
X102137010Y-68854310D02*
G75*
G03*
X100887010Y-70104284I-10J-1249990D01*
G01*
X103638010Y-141858284D02*
G75*
G03*
X103638010Y-141858284I-1500000J0D01*
G01*
X169137410Y-90355358D02*
X169896624Y-89916900D01*
X99137961Y-145854644D02*
G75*
G03*
X104137105Y-150853739I4999139J44D01*
G01*
X176638166Y-60161879D02*
G75*
G03*
X91637919Y-62356856I-40615956J-74061661D01*
G01*
X163637101Y-69354596D02*
X159111178Y-72981719D01*
X91637919Y-62356855D02*
X91637010Y-69354024D01*
X167638010Y-141858284D02*
G75*
G03*
X167638010Y-141858284I-1500000J0D01*
G01*
X84690204Y-103902304D02*
X88353845Y-106838385D01*
X169640411Y-89487474D02*
G75*
G03*
X158962226Y-75970978I-58267411J-35055726D01*
G01*
X183584031Y-103902337D02*
G75*
G03*
X183916538Y-102834867I-625431J780337D01*
G01*
X130137010Y-62854276D02*
G75*
G03*
X130137010Y-74854284I0J-6000004D01*
G01*
X168638639Y-71356584D02*
X174638639Y-71355171D01*
X130137010Y-74854284D02*
X138137010Y-74854284D01*
X179920365Y-106838385D02*
X183584005Y-103902304D01*
X84357709Y-102834878D02*
G75*
G03*
X84690204Y-103902304I957891J-287122D01*
G01*
X167387116Y-70104859D02*
G75*
G03*
X168638639Y-71356584I1251184J-541D01*
G01*
X176746811Y-105828182D02*
G75*
G03*
X179920365Y-106838384I1922789J550482D01*
G01*
X104137105Y-150853739D02*
X164137259Y-150853739D01*
X102137010Y-68854284D02*
X104137171Y-68854284D01*
X138137010Y-62854284D02*
X130137010Y-62854284D01*
X169640412Y-89487474D02*
X168771413Y-89989336D01*
X183916526Y-102834870D02*
G75*
G03*
X164137100Y-69354535I-77589826J-23255530D01*
G01*
X114137510Y-75356084D02*
X99505145Y-89990692D01*
X104637108Y-68854284D02*
X111637011Y-68854284D01*
X164137101Y-69354534D02*
X164137039Y-68854534D01*
X104137103Y-69354529D02*
G75*
G03*
X84357673Y-102834867I57810397J-56735871D01*
G01*
X174638639Y-71355168D02*
G75*
G03*
X176638168Y-69355171I-439J1999968D01*
G01*
X164137259Y-150853710D02*
G75*
G03*
X169137410Y-145853588I41J5000110D01*
G01*
X104137171Y-68854284D02*
X104137108Y-69354534D01*
X138137010Y-74854276D02*
G75*
G03*
X138137010Y-62854284I0J5999996D01*
G01*
X103638010Y-121858284D02*
G75*
G03*
X103638010Y-121858284I-1500000J0D01*
G01*
X109163031Y-72981719D02*
X104637108Y-69354596D01*
X104637108Y-69354596D02*
X104637108Y-68854284D01*
X98377584Y-89916899D02*
G75*
G03*
X91527339Y-105828165I58523616J-34626301D01*
G01*
X114137010Y-71353971D02*
X114137510Y-75356084D01*
X148917500Y-70142500D02*
G75*
G03*
X148917500Y-70142500I-1500000J0D01*
G01*
X88353875Y-106838347D02*
G75*
G03*
X91527338Y-105828165I1250725J1560647D01*
G01*
X99139168Y-90356726D02*
X99138010Y-90357884D01*
X176746858Y-105828169D02*
G75*
G03*
X169896623Y-89916900I-65373958J-18715031D01*
G01*
X156636003Y-68855440D02*
G75*
G03*
X154140041Y-71349711I297J-2496260D01*
G01*
X167638010Y-121858284D02*
G75*
G03*
X167638010Y-121858284I-1500000J0D01*
G01*
X99505145Y-89990692D02*
X98633797Y-89487474D01*
X114137016Y-71353971D02*
G75*
G03*
X111637011Y-68854284I-2500016J-329D01*
G01*
X93637010Y-71354284D02*
X99637010Y-71354284D01*
X169137410Y-145853588D02*
X169137410Y-90355358D01*
X109311973Y-75970968D02*
G75*
G03*
X98633798Y-89487474I47589327J-48572232D01*
G01*
X98377586Y-89916900D02*
X99139168Y-90356726D01*
X168771413Y-89989336D02*
X154136774Y-75353694D01*
X109312001Y-75970997D02*
G75*
G03*
X109163031Y-72981719I-1399701J1428597D01*
G01*
X163637039Y-68854596D02*
X163637101Y-69354596D01*
X156636003Y-68855471D02*
X163637039Y-68854596D01*
X154136774Y-75353694D02*
X154140040Y-71349711D01*
M02*
