M48
; DRILL file {KiCad 7.0.1} date Sun May 14 11:00:17 2023
; FORMAT={-:-/ absolute / inch / decimal}
; #@! TF.CreationDate,2023-05-14T11:00:17+09:00
; #@! TF.GenerationSoftware,Kicad,Pcbnew,7.0.1
; #@! TF.FileFunction,Plated,1,4,PTH
FMAT,2
INCH
; #@! TA.AperFunction,Plated,PTH,ViaDrill
T1C0.0177
; #@! TA.AperFunction,Plated,PTH,ComponentDrill
T2C0.0300
; #@! TA.AperFunction,Plated,PTH,ComponentDrill
T3C0.0315
; #@! TA.AperFunction,Plated,PTH,ComponentDrill
T4C0.0339
; #@! TA.AperFunction,Plated,PTH,ComponentDrill
T5C0.0394
; #@! TA.AperFunction,Plated,PTH,ComponentDrill
T6C0.0402
; #@! TA.AperFunction,Plated,PTH,ComponentDrill
T7C0.0524
%
G90
G05
T1
X3.4764Y-3.8543
X3.5079Y-3.811
X3.5551Y-3.748
X3.6693Y-3.3583
X3.6693Y-3.8346
X3.689Y-3.4528
X3.8583Y-3.1102
X3.8937Y-2.378
X3.9606Y-3.9094
X3.9685Y-3.2913
X3.9921Y-2.9291
X4.0039Y-5.2677
X4.0551Y-4.0472
X4.122Y-4.5591
X4.1339Y-5.7756
X4.166Y-4.0079
X4.1811Y-3.437
X4.1897Y-4.3954
X4.2283Y-5.5512
X4.2448Y-4.041
X4.2638Y-5.063
X4.2677Y-3.3504
X4.2881Y-4.7536
X4.3661Y-4.7598
X4.3976Y-4.9843
X4.4023Y-4.1119
X4.4062Y-4.5607
X4.4606Y-5.1339
X4.4764Y-4.5433
X4.5164Y-2.7103
X4.5276Y-4.3543
X4.5394Y-4.0787
X4.5591Y-5.6969
X4.626Y-2.5315
X4.6457Y-3.2441
X4.6496Y-3.122
X4.6575Y-5.3622
X4.6811Y-2.622
X4.7087Y-3.0079
X4.7559Y-2.5276
X4.7566Y-2.1473
X4.7566Y-2.2143
X4.7638Y-5.0197
X4.8189Y-5.6614
X4.8465Y-3.8465
X4.9094Y-2.9291
X5.0079Y-5.5945
X5.044Y-3.6355
X5.0479Y-3.7891
X5.0748Y-5.8189
X5.0834Y-4.2103
X5.0945Y-4.8346
X5.1142Y-3.4606
X5.1142Y-3.5787
X5.1188Y-4.2733
X5.122Y-3.3661
X5.1227Y-4.045
X5.1417Y-2.4252
X5.1897Y-4.667
X5.2008Y-4.4094
X5.2047Y-4.2559
X5.2205Y-3.0512
X5.2212Y-3.8284
X5.2251Y-4.1316
X5.2402Y-5.3858
X5.2559Y-4.8701
X5.3228Y-5.6181
X5.3235Y-4.2851
X5.3661Y-3.7362
X5.4023Y-4.2655
X5.4101Y-3.3757
X5.4101Y-3.5765
X5.4456Y-3.0686
X5.4456Y-4.7615
X5.4534Y-2.419
X5.4771Y-3.4505
X5.5204Y-4.2576
X5.5236Y-5.7756
X5.5558Y-4.7615
X5.5676Y-4.856
X5.5787Y-4.2717
X5.6142Y-5.5748
X5.6299Y-2.4803
X5.6306Y-4.8914
X5.6345Y-4.2261
X5.6464Y-4.2851
X5.6732Y-3.5945
X5.689Y-3.7362
X5.689Y-5.1457
X5.6897Y-3.3088
X5.6897Y-3.3088
X5.6929Y-2.937
X5.8386Y-2.563
X5.855Y-3.8796
X5.8583Y-3.0354
X5.8858Y-4.0827
X5.9016Y-2.6496
X5.9173Y-3.4764
X5.918Y-4.2615
X5.9252Y-3.0984
X5.9331Y-5.5709
X5.9488Y-2.4685
X5.9685Y-4.2165
X5.9803Y-4.4134
X5.9843Y-4.0472
X6.0079Y-5.1654
X6.0354Y-5.0
X6.0361Y-4.2458
X6.0401Y-3.1592
X6.0512Y-5.7008
X6.1306Y-3.8678
X6.1378Y-3.3701
X6.1693Y-2.2598
X6.1811Y-3.9488
X6.1929Y-3.2126
X6.2441Y-3.5
X6.248Y-5.6181
X6.2598Y-4.6811
X6.2913Y-4.4606
X6.3071Y-4.1142
X6.3747Y-4.8639
X6.4173Y-3.4173
X6.4213Y-5.0787
X6.5Y-5.7598
X6.5157Y-3.8937
X6.5551Y-5.2559
X6.7008Y-3.122
X6.7638Y-3.4213
X6.8031Y-3.4803
X6.8858Y-2.7047
X6.8858Y-3.7756
X6.9252Y-3.5827
X7.0315Y-3.6654
X7.0591Y-3.9252
T2
X4.0991Y-4.1891
X4.0991Y-4.2891
X4.0991Y-4.3891
X4.4692Y-3.2832
X4.7684Y-3.2851
X4.9684Y-3.0729
X4.9684Y-3.1729
X4.9684Y-3.2729
X4.9684Y-3.3729
X4.9684Y-3.4729
X4.9684Y-3.5729
X4.9684Y-3.6729
X4.9684Y-3.7729
X5.5684Y-3.0729
X5.5684Y-3.1729
X5.5684Y-3.2729
X5.5684Y-3.3729
X5.5684Y-3.4729
X5.5684Y-3.5729
X5.5684Y-3.6729
X5.5684Y-3.7729
X5.5857Y-4.1021
X5.5857Y-4.421
X5.6857Y-4.1021
X5.6857Y-4.421
X5.7857Y-4.1021
X5.7857Y-4.421
T3
X3.7573Y-3.2445
X3.8873Y-3.3645
X3.9501Y-3.0147
X3.9894Y-3.6409
X3.9894Y-3.7196
X3.9894Y-3.7984
X4.0086Y-2.332
X4.0086Y-2.632
X4.0581Y-2.8842
X4.0681Y-3.6409
X4.0681Y-3.7196
X4.0681Y-3.7984
X4.0801Y-3.1347
X4.1087Y-2.8239
X4.1184Y-2.9348
X4.169Y-2.8745
X4.1787Y-2.9854
X4.2293Y-2.9251
X4.418Y-2.1903
X4.418Y-2.4903
X4.6617Y-4.3639
X4.6696Y-4.1473
X4.8196Y-2.0686
X4.8196Y-2.3686
X4.9617Y-4.3639
X4.9696Y-4.1473
X5.2094Y-2.0288
X5.2094Y-2.3288
X5.3747Y-2.0288
X5.3747Y-2.3288
X5.7605Y-2.0643
X5.7605Y-2.3643
X6.1503Y-2.1548
X6.1503Y-2.4548
X6.2426Y-3.6946
X6.3214Y-3.6946
X6.3281Y-2.9301
X6.3787Y-2.9904
X6.3884Y-2.8795
X6.439Y-2.9398
X6.4487Y-2.8289
X6.4773Y-3.1147
X6.4944Y-3.6209
X6.4944Y-3.6996
X6.4944Y-3.7784
X6.4993Y-2.8892
X6.5637Y-2.2966
X6.5637Y-2.5966
X6.5731Y-3.6209
X6.5731Y-3.6996
X6.5731Y-3.7784
X6.6023Y-3.0097
X6.6701Y-3.3445
X6.7951Y-3.2395
T4
X3.3798Y-4.046
X3.444Y-3.9694
X3.5034Y-4.1498
X3.5677Y-4.0732
X3.7448Y-2.5174
X3.7448Y-2.6788
X3.8448Y-2.5174
X3.8448Y-2.6788
X4.1554Y-2.3225
X4.1554Y-2.484
X4.2554Y-2.3225
X4.2554Y-2.484
X4.5693Y-2.1788
X4.5693Y-2.3403
X4.6693Y-2.1788
X4.6693Y-2.3403
X4.9664Y-2.1099
X4.9664Y-2.2714
X5.0664Y-2.1099
X5.0664Y-2.2714
X5.5137Y-2.1099
X5.5137Y-2.2714
X5.6137Y-2.1099
X5.6137Y-2.2714
X5.8956Y-2.1651
X5.8956Y-2.3265
X5.9956Y-2.1651
X5.9956Y-2.3265
X6.309Y-2.295
X6.309Y-2.4564
X6.409Y-2.295
X6.409Y-2.4564
X6.7112Y-2.48
X6.7112Y-2.6414
X6.8112Y-2.48
X6.8112Y-2.6414
X6.9898Y-4.0732
X7.054Y-4.1498
X7.1134Y-3.9694
X7.1777Y-4.046
T5
X4.4527Y-4.7576
X4.4869Y-3.6021
X4.4869Y-3.7792
X4.5527Y-4.7576
X4.6527Y-4.7576
X4.7428Y-3.6021
X4.7428Y-3.7792
X4.7527Y-4.7576
X4.8527Y-4.7576
X4.9527Y-4.7576
X5.6375Y-4.7566
X5.7375Y-4.7566
X5.7836Y-3.6099
X5.7836Y-3.7871
X5.8375Y-4.7566
X5.9375Y-4.7566
X6.0375Y-4.7566
X6.0395Y-3.6099
X6.0395Y-3.7871
X6.1375Y-4.7566
X6.1503Y-4.0503
X6.1503Y-4.1503
X6.1503Y-4.3964
X6.1503Y-4.4964
X6.4062Y-4.4908
X6.4062Y-4.5908
T6
X4.5684Y-3.9576
X4.5684Y-4.5576
X4.6684Y-3.9576
X4.6684Y-4.5576
X4.7684Y-3.9576
X4.7684Y-4.5576
X4.8684Y-3.9576
X4.8684Y-4.5576
X4.9684Y-3.9576
X4.9684Y-4.5576
X5.0684Y-3.9576
X5.0684Y-4.5576
X5.1684Y-3.9576
X5.1684Y-4.5576
X5.2684Y-3.9576
X5.2684Y-4.5576
X5.3684Y-3.9576
X5.3684Y-4.5576
X5.4684Y-3.9576
X5.4684Y-4.5576
X5.5684Y-3.9576
X5.5684Y-4.5576
X5.6684Y-3.9576
X5.6684Y-4.5576
X5.7684Y-3.9576
X5.7684Y-4.5576
X5.8684Y-3.9576
X5.8684Y-4.5576
X5.9684Y-3.9576
X5.9684Y-4.5576
T7
X6.5194Y-4.067
X6.5194Y-4.167
X6.5194Y-4.267
T0
M30
