%TF.GenerationSoftware,KiCad,Pcbnew,7.0.1*%
%TF.CreationDate,2023-05-14T10:54:03+09:00*%
%TF.ProjectId,trace,74726163-652e-46b6-9963-61645f706362,rev?*%
%TF.SameCoordinates,Original*%
%TF.FileFunction,Copper,L1,Top*%
%TF.FilePolarity,Positive*%
%FSLAX46Y46*%
G04 Gerber Fmt 4.6, Leading zero omitted, Abs format (unit mm)*
G04 Created by KiCad (PCBNEW 7.0.1) date 2023-05-14 10:54:03*
%MOMM*%
%LPD*%
G01*
G04 APERTURE LIST*
G04 Aperture macros list*
%AMHorizOval*
0 Thick line with rounded ends*
0 $1 width*
0 $2 $3 position (X,Y) of the first rounded end (center of the circle)*
0 $4 $5 position (X,Y) of the second rounded end (center of the circle)*
0 Add line between two ends*
20,1,$1,$2,$3,$4,$5,0*
0 Add two circle primitives to create the rounded ends*
1,1,$1,$2,$3*
1,1,$1,$4,$5*%
%AMRotRect*
0 Rectangle, with rotation*
0 The origin of the aperture is its center*
0 $1 length*
0 $2 width*
0 $3 Rotation angle, in degrees counterclockwise*
0 Add horizontal line*
21,1,$1,$2,0,0,$3*%
G04 Aperture macros list end*
%TA.AperFunction,ComponentPad*%
%ADD10C,1.995000*%
%TD*%
%TA.AperFunction,ComponentPad*%
%ADD11R,1.995000X1.995000*%
%TD*%
%TA.AperFunction,ComponentPad*%
%ADD12C,1.524000*%
%TD*%
%TA.AperFunction,ComponentPad*%
%ADD13C,1.600000*%
%TD*%
%TA.AperFunction,ComponentPad*%
%ADD14O,1.600000X1.600000*%
%TD*%
%TA.AperFunction,ComponentPad*%
%ADD15R,1.368000X1.368000*%
%TD*%
%TA.AperFunction,ComponentPad*%
%ADD16C,1.368000*%
%TD*%
%TA.AperFunction,ComponentPad*%
%ADD17O,1.700000X1.700000*%
%TD*%
%TA.AperFunction,ComponentPad*%
%ADD18R,1.700000X1.700000*%
%TD*%
%TA.AperFunction,ComponentPad*%
%ADD19C,1.530000*%
%TD*%
%TA.AperFunction,ComponentPad*%
%ADD20R,1.530000X1.530000*%
%TD*%
%TA.AperFunction,ComponentPad*%
%ADD21RotRect,1.350000X1.350000X310.000000*%
%TD*%
%TA.AperFunction,ComponentPad*%
%ADD22HorizOval,1.350000X0.000000X0.000000X0.000000X0.000000X0*%
%TD*%
%TA.AperFunction,ComponentPad*%
%ADD23R,1.508000X1.508000*%
%TD*%
%TA.AperFunction,ComponentPad*%
%ADD24C,1.508000*%
%TD*%
%TA.AperFunction,ComponentPad*%
%ADD25R,1.524000X1.524000*%
%TD*%
%TA.AperFunction,ComponentPad*%
%ADD26R,1.350000X1.350000*%
%TD*%
%TA.AperFunction,ComponentPad*%
%ADD27O,1.350000X1.350000*%
%TD*%
%TA.AperFunction,ComponentPad*%
%ADD28HorizOval,1.600000X0.000000X0.000000X0.000000X0.000000X0*%
%TD*%
%TA.AperFunction,ComponentPad*%
%ADD29RotRect,1.350000X1.350000X50.000000*%
%TD*%
%TA.AperFunction,ComponentPad*%
%ADD30HorizOval,1.350000X0.000000X0.000000X0.000000X0.000000X0*%
%TD*%
%TA.AperFunction,ComponentPad*%
%ADD31RotRect,1.368000X1.368000X130.000000*%
%TD*%
%TA.AperFunction,ComponentPad*%
%ADD32R,1.600000X1.600000*%
%TD*%
%TA.AperFunction,ComponentPad*%
%ADD33HorizOval,1.600000X0.000000X0.000000X0.000000X0.000000X0*%
%TD*%
%TA.AperFunction,ComponentPad*%
%ADD34RotRect,1.368000X1.368000X230.000000*%
%TD*%
%TA.AperFunction,ViaPad*%
%ADD35C,0.800000*%
%TD*%
%TA.AperFunction,Conductor*%
%ADD36C,1.000000*%
%TD*%
%TA.AperFunction,Conductor*%
%ADD37C,0.400000*%
%TD*%
G04 APERTURE END LIST*
D10*
%TO.P,\u4E09\u7AEF\u5B501,3,Pin_3*%
%TO.N,VCC*%
X165592500Y-103302500D03*
%TO.P,\u4E09\u7AEF\u5B501,2,Pin_2*%
%TO.N,GND*%
X165592500Y-105842500D03*
D11*
%TO.P,\u4E09\u7AEF\u5B501,1,Pin_1*%
%TO.N,+5V*%
X165592500Y-108382500D03*
%TD*%
D12*
%TO.P,U14,16,GND*%
%TO.N,GND*%
X141437500Y-95832500D03*
%TO.P,U14,15,NC*%
%TO.N,unconnected-(U14-NC-Pad15)*%
X141437500Y-93292500D03*
%TO.P,U14,14,BIN2*%
%TO.N,BIN2*%
X141437500Y-90752500D03*
%TO.P,U14,13,BIN1*%
%TO.N,BIN1*%
X141437500Y-88212500D03*
%TO.P,U14,12,STBY*%
%TO.N,+3.3V*%
X141437500Y-85672500D03*
%TO.P,U14,11,AIN1*%
%TO.N,AIN1*%
X141437500Y-83132500D03*
%TO.P,U14,10,AIN2*%
%TO.N,AIN2*%
X141437500Y-80592500D03*
%TO.P,U14,9,NC*%
%TO.N,unconnected-(U14-NC-Pad9)*%
X141437500Y-78052500D03*
%TO.P,U14,8,VM*%
%TO.N,VDD*%
X126197500Y-78052500D03*
%TO.P,U14,7,NC*%
%TO.N,unconnected-(U14-NC-Pad7)*%
X126197500Y-80592500D03*
%TO.P,U14,6,GND*%
%TO.N,GND*%
X126197500Y-83132500D03*
%TO.P,U14,5,AO1*%
%TO.N,Net-(J1-Pin_6)*%
X126197500Y-85672500D03*
%TO.P,U14,4,AO2*%
%TO.N,Net-(J1-Pin_1)*%
X126197500Y-88212500D03*
%TO.P,U14,3,BO2*%
%TO.N,Net-(J7-Pin_6)*%
X126197500Y-90752500D03*
%TO.P,U14,2,BO1*%
%TO.N,Net-(J7-Pin_1)*%
X126197500Y-93292500D03*
%TO.P,U14,1,GND*%
%TO.N,GND*%
X126197500Y-95832500D03*
%TD*%
D13*
%TO.P,R3,1*%
%TO.N,+3.3V*%
X122417500Y-60162500D03*
D14*
%TO.P,R3,2*%
%TO.N,Net-(R3-Pad2)*%
X122417500Y-52542500D03*
%TD*%
D15*
%TO.P,U9,1*%
%TO.N,Net-(U8-Pad4)*%
X162787500Y-62392500D03*
D16*
%TO.P,U9,2*%
%TO.N,RRS*%
X162787500Y-58292500D03*
%TO.P,U9,3*%
%TO.N,+3.3V*%
X160247500Y-58292500D03*
%TO.P,U9,4*%
%TO.N,GND*%
X160247500Y-62392500D03*
%TD*%
D17*
%TO.P,C2,2*%
%TO.N,GND*%
X156217500Y-102877500D03*
D18*
%TO.P,C2,1*%
%TO.N,+5V*%
X156217500Y-105417500D03*
%TD*%
D13*
%TO.P,R2,1*%
%TO.N,LLS*%
X101817500Y-66852500D03*
D14*
%TO.P,R2,2*%
%TO.N,GND*%
X101817500Y-59232500D03*
%TD*%
D13*
%TO.P,R7,1*%
%TO.N,+3.3V*%
X156217500Y-62352500D03*
D14*
%TO.P,R7,2*%
%TO.N,Net-(R7-Pad2)*%
X156217500Y-54732500D03*
%TD*%
D19*
%TO.P,U1,4_15,PB3*%
%TO.N,unconnected-(U1B-PB3-Pad4_15)*%
X151597500Y-100522500D03*
%TO.P,U1,4_14,+3V3*%
%TO.N,+3.3V*%
X149057500Y-100522500D03*
%TO.P,U1,4_13,AREF*%
%TO.N,unconnected-(U1B-AREF-Pad4_13)*%
X146517500Y-100522500D03*
%TO.P,U1,4_12,PA0*%
%TO.N,unconnected-(U1B-PA0-Pad4_12)*%
X143977500Y-100522500D03*
%TO.P,U1,4_11,PA1*%
%TO.N,RHallA*%
X141437500Y-100522500D03*
%TO.P,U1,4_10,PA3*%
%TO.N,LLS*%
X138897500Y-100522500D03*
%TO.P,U1,4_9,PA4*%
%TO.N,FLS*%
X136357500Y-100522500D03*
%TO.P,U1,4_8,PA5*%
%TO.N,FRS*%
X133817500Y-100522500D03*
%TO.P,U1,4_7,PA6*%
%TO.N,RRS*%
X131277500Y-100522500D03*
%TO.P,U1,4_6,PA7*%
%TO.N,BSEN*%
X128737500Y-100522500D03*
%TO.P,U1,4_5,PA2*%
%TO.N,RHallB*%
X126197500Y-100522500D03*
%TO.P,U1,4_4,+5V*%
%TO.N,+5V*%
X123657500Y-100522500D03*
%TO.P,U1,4_3,NRST_2*%
%TO.N,unconnected-(U1B-NRST_2-Pad4_3)*%
X121117500Y-100522500D03*
%TO.P,U1,4_2,GND_2*%
%TO.N,GND*%
X118577500Y-100522500D03*
D20*
%TO.P,U1,4_1,VIN*%
%TO.N,+5V*%
X116037500Y-100522500D03*
D19*
%TO.P,U1,3_15,PB4*%
%TO.N,BIN1*%
X151597500Y-115762500D03*
%TO.P,U1,3_14,PB5*%
%TO.N,BIN2*%
X149057500Y-115762500D03*
%TO.P,U1,3_13,PA11*%
%TO.N,AIN2*%
X146517500Y-115762500D03*
%TO.P,U1,3_12,PA8*%
%TO.N,LHallB*%
X143977500Y-115762500D03*
%TO.P,U1,3_11,PF1*%
%TO.N,Net-(U1A-PF1)*%
X141437500Y-115762500D03*
%TO.P,U1,3_10,PF0*%
%TO.N,Net-(U1A-PF0)*%
X138897500Y-115762500D03*
%TO.P,U1,3_9,PB1*%
%TO.N,MLS*%
X136357500Y-115762500D03*
%TO.P,U1,3_8,PB6*%
%TO.N,SCL*%
X133817500Y-115762500D03*
%TO.P,U1,3_7,PB7*%
%TO.N,SDA*%
X131277500Y-115762500D03*
%TO.P,U1,3_6,PB0*%
%TO.N,MRS*%
X128737500Y-115762500D03*
%TO.P,U1,3_5,PA12*%
%TO.N,Net-(U13-IN)*%
X126197500Y-115762500D03*
%TO.P,U1,3_4,GND_1*%
%TO.N,GND*%
X123657500Y-115762500D03*
%TO.P,U1,3_3,NRST_1*%
%TO.N,unconnected-(U1A-NRST_1-Pad3_3)*%
X121117500Y-115762500D03*
%TO.P,U1,3_2,PA10*%
%TO.N,AIN1*%
X118577500Y-115762500D03*
D20*
%TO.P,U1,3_1,PA9*%
%TO.N,LHallA*%
X116037500Y-115762500D03*
%TD*%
D18*
%TO.P,J1,1,Pin_1*%
%TO.N,Net-(J1-Pin_1)*%
X113097500Y-120842500D03*
D17*
%TO.P,J1,2,Pin_2*%
%TO.N,GND*%
X115637500Y-120842500D03*
%TO.P,J1,3,Pin_3*%
%TO.N,LHallA*%
X118177500Y-120842500D03*
%TO.P,J1,4,Pin_4*%
%TO.N,LHallB*%
X120717500Y-120842500D03*
%TO.P,J1,5,Pin_5*%
%TO.N,+3.3V*%
X123257500Y-120842500D03*
%TO.P,J1,6,Pin_6*%
%TO.N,Net-(J1-Pin_6)*%
X125797500Y-120842500D03*
%TD*%
D13*
%TO.P,R10,1*%
%TO.N,VCC*%
X126027500Y-110842500D03*
D14*
%TO.P,R10,2*%
%TO.N,BSEN*%
X118407500Y-110842500D03*
%TD*%
D21*
%TO.P,J2,1,Pin_1*%
%TO.N,Net-(J2-Pin_1)*%
X163797802Y-71852881D03*
D22*
%TO.P,J2,2,Pin_2*%
X165083377Y-73384970D03*
%TO.P,J2,3,Pin_3*%
%TO.N,Net-(J2-Pin_3)*%
X162265713Y-73138456D03*
%TO.P,J2,4,Pin_4*%
X163551288Y-74670545D03*
%TO.P,J2,5,Pin_5*%
%TO.N,Net-(J2-Pin_5)*%
X160733624Y-74424031D03*
%TO.P,J2,6,Pin_6*%
X162019199Y-75956120D03*
%TD*%
D23*
%TO.P,S2,1*%
%TO.N,GND*%
X146903000Y-96192500D03*
D24*
%TO.P,S2,2*%
X153403000Y-96192500D03*
%TO.P,S2,3*%
%TO.N,unconnected-(S2-Pad3)*%
X146903000Y-91692500D03*
%TO.P,S2,4*%
%TO.N,Net-(U1A-PF1)*%
X153403000Y-91692500D03*
%TD*%
D13*
%TO.P,R5,1*%
%TO.N,+3.3V*%
X136517500Y-59152500D03*
D14*
%TO.P,R5,2*%
%TO.N,Net-(R5-Pad2)*%
X136517500Y-51532500D03*
%TD*%
D13*
%TO.P,R4,1*%
%TO.N,FLS*%
X132317500Y-59152500D03*
D14*
%TO.P,R4,2*%
%TO.N,GND*%
X132317500Y-51532500D03*
%TD*%
D12*
%TO.P,U12,1,VCC*%
%TO.N,+3.3V*%
X141877500Y-104192500D03*
%TO.P,U12,2,VCCIO*%
%TO.N,unconnected-(U12-VCCIO-Pad2)*%
X144417500Y-104192500D03*
%TO.P,U12,3,3v3*%
%TO.N,+3.3V*%
X146957500Y-104192500D03*
D25*
%TO.P,U12,4,GND*%
%TO.N,GND*%
X141877500Y-112292500D03*
D12*
%TO.P,U12,5,SDA*%
%TO.N,SDA*%
X144417500Y-112292500D03*
%TO.P,U12,6,SCL*%
%TO.N,SCL*%
X146957500Y-112292500D03*
%TD*%
D26*
%TO.P,J4,1,Pin_1*%
%TO.N,+3.3V*%
X164956500Y-91970500D03*
D27*
%TO.P,J4,2,Pin_2*%
X166956500Y-91970500D03*
%TO.P,J4,3,Pin_3*%
%TO.N,GND*%
X164956500Y-93970500D03*
%TO.P,J4,4,Pin_4*%
X166956500Y-93970500D03*
%TO.P,J4,5,Pin_5*%
%TO.N,MLS*%
X164956500Y-95970500D03*
%TO.P,J4,6,Pin_6*%
X166956500Y-95970500D03*
%TD*%
D13*
%TO.P,R14,1*%
%TO.N,Net-(R14-Pad1)*%
X164523480Y-79113871D03*
D28*
%TO.P,R14,2*%
%TO.N,Net-(J2-Pin_5)*%
X169421522Y-84951130D03*
%TD*%
D26*
%TO.P,J5,1,Pin_1*%
%TO.N,+3.3V*%
X101329500Y-92478500D03*
D27*
%TO.P,J5,2,Pin_2*%
X103329500Y-92478500D03*
%TO.P,J5,3,Pin_3*%
%TO.N,GND*%
X101329500Y-94478500D03*
%TO.P,J5,4,Pin_4*%
X103329500Y-94478500D03*
%TO.P,J5,5,Pin_5*%
%TO.N,MRS*%
X101329500Y-96478500D03*
%TO.P,J5,6,Pin_6*%
X103329500Y-96478500D03*
%TD*%
D18*
%TO.P,J7,1,Pin_1*%
%TO.N,Net-(J7-Pin_1)*%
X143192500Y-120817500D03*
D17*
%TO.P,J7,2,Pin_2*%
%TO.N,GND*%
X145732500Y-120817500D03*
%TO.P,J7,3,Pin_3*%
%TO.N,RHallA*%
X148272500Y-120817500D03*
%TO.P,J7,4,Pin_4*%
%TO.N,RHallB*%
X150812500Y-120817500D03*
%TO.P,J7,5,Pin_5*%
%TO.N,+3.3V*%
X153352500Y-120817500D03*
%TO.P,J7,6,Pin_6*%
%TO.N,Net-(J7-Pin_6)*%
X155892500Y-120817500D03*
%TD*%
D29*
%TO.P,J3,1,Pin_1*%
%TO.N,Net-(J3-Pin_1)*%
X103075624Y-73257969D03*
D30*
%TO.P,J3,2,Pin_2*%
X104361199Y-71725880D03*
%TO.P,J3,3,Pin_3*%
%TO.N,Net-(J3-Pin_3)*%
X104607713Y-74543544D03*
%TO.P,J3,4,Pin_4*%
X105893288Y-73011455D03*
%TO.P,J3,5,Pin_5*%
%TO.N,Net-(J3-Pin_5)*%
X106139802Y-75829119D03*
%TO.P,J3,6,Pin_6*%
X107425377Y-74297031D03*
%TD*%
D18*
%TO.P,C1,1*%
%TO.N,VCC*%
X156217500Y-111667500D03*
D17*
%TO.P,C1,2*%
%TO.N,GND*%
X156217500Y-114207500D03*
%TD*%
D31*
%TO.P,U11,1*%
%TO.N,Net-(R13-Pad2)*%
X179172449Y-105405091D03*
D16*
%TO.P,U11,2*%
%TO.N,Net-(R14-Pad1)*%
X182313231Y-102769662D03*
%TO.P,U11,3*%
%TO.N,Net-(J2-Pin_1)*%
X180680551Y-100823909D03*
%TO.P,U11,4*%
%TO.N,Net-(J2-Pin_3)*%
X177539769Y-103459338D03*
%TD*%
D15*
%TO.P,U8,1*%
%TO.N,Net-(R7-Pad2)*%
X173004291Y-67092500D03*
D16*
%TO.P,U8,2*%
%TO.N,RRS*%
X173004291Y-62992500D03*
%TO.P,U8,3*%
%TO.N,+3.3V*%
X170464291Y-62992500D03*
%TO.P,U8,4*%
%TO.N,Net-(U8-Pad4)*%
X170464291Y-67092500D03*
%TD*%
D12*
%TO.P,SW1,3,C*%
%TO.N,unconnected-(SW1-C-Pad3)*%
X104117500Y-111482500D03*
%TO.P,SW1,2,B*%
%TO.N,VDD*%
X104117500Y-108942500D03*
%TO.P,SW1,1,A*%
%TO.N,VCC*%
X104117500Y-106402500D03*
%TD*%
D13*
%TO.P,R6,1*%
%TO.N,FRS*%
X146317500Y-60052500D03*
D14*
%TO.P,R6,2*%
%TO.N,GND*%
X146317500Y-52432500D03*
%TD*%
D32*
%TO.P,C3,1*%
%TO.N,VDD*%
X158562388Y-93842500D03*
D13*
%TO.P,C3,2*%
%TO.N,GND*%
X160562388Y-93842500D03*
%TD*%
%TO.P,R12,1*%
%TO.N,Net-(R12-Pad1)*%
X98737480Y-85459130D03*
D33*
%TO.P,R12,2*%
%TO.N,Net-(J3-Pin_5)*%
X103635522Y-79621871D03*
%TD*%
D13*
%TO.P,R9,1*%
%TO.N,Net-(J3-Pin_1)*%
X95435480Y-82411130D03*
D33*
%TO.P,R9,2*%
%TO.N,Net-(R9-Pad2)*%
X100333522Y-76573871D03*
%TD*%
D15*
%TO.P,U4,1*%
%TO.N,Net-(R3-Pad2)*%
X128687500Y-57692500D03*
D16*
%TO.P,U4,2*%
%TO.N,FLS*%
X128687500Y-53592500D03*
%TO.P,U4,3*%
%TO.N,+3.3V*%
X126147500Y-53592500D03*
%TO.P,U4,4*%
%TO.N,Net-(U4-Pad4)*%
X126147500Y-57692500D03*
%TD*%
D12*
%TO.P,U13,1,IN*%
%TO.N,Net-(U13-IN)*%
X121117500Y-83442500D03*
%TO.P,U13,2,OUT*%
%TO.N,GND*%
X113517500Y-83392500D03*
%TD*%
D18*
%TO.P,J6,1,Pin_1*%
%TO.N,GND*%
X162717500Y-114067500D03*
D17*
%TO.P,J6,2,Pin_2*%
%TO.N,VDD*%
X162717500Y-116607500D03*
%TD*%
D34*
%TO.P,U10,1*%
%TO.N,Net-(R9-Pad2)*%
X90619231Y-103459338D03*
D16*
%TO.P,U10,2*%
%TO.N,Net-(R12-Pad1)*%
X87478449Y-100823909D03*
%TO.P,U10,3*%
%TO.N,Net-(J3-Pin_1)*%
X85845769Y-102769662D03*
%TO.P,U10,4*%
%TO.N,Net-(J3-Pin_3)*%
X88986551Y-105405091D03*
%TD*%
D15*
%TO.P,U5,1*%
%TO.N,Net-(U4-Pad4)*%
X118600710Y-59442500D03*
D16*
%TO.P,U5,2*%
%TO.N,FLS*%
X118600710Y-55342500D03*
%TO.P,U5,3*%
%TO.N,+3.3V*%
X116060710Y-55342500D03*
%TO.P,U5,4*%
%TO.N,GND*%
X116060710Y-59442500D03*
%TD*%
D23*
%TO.P,S1,1*%
%TO.N,GND*%
X113967500Y-95992500D03*
D24*
%TO.P,S1,2*%
X120467500Y-95992500D03*
%TO.P,S1,3*%
%TO.N,unconnected-(S1-Pad3)*%
X113967500Y-91492500D03*
%TO.P,S1,4*%
%TO.N,Net-(U1A-PF0)*%
X120467500Y-91492500D03*
%TD*%
D13*
%TO.P,R1,1*%
%TO.N,+3.3V*%
X112217500Y-63252500D03*
D14*
%TO.P,R1,2*%
%TO.N,Net-(R1-Pad2)*%
X112217500Y-55632500D03*
%TD*%
D13*
%TO.P,R8,1*%
%TO.N,RRS*%
X166717500Y-65952500D03*
D14*
%TO.P,R8,2*%
%TO.N,GND*%
X166717500Y-58332500D03*
%TD*%
D15*
%TO.P,U7,1*%
%TO.N,Net-(U6-Pad4)*%
X142587500Y-57692500D03*
D16*
%TO.P,U7,2*%
%TO.N,FRS*%
X142587500Y-53592500D03*
%TO.P,U7,3*%
%TO.N,+3.3V*%
X140047500Y-53592500D03*
%TO.P,U7,4*%
%TO.N,GND*%
X140047500Y-57692500D03*
%TD*%
D13*
%TO.P,R13,1*%
%TO.N,Net-(J2-Pin_1)*%
X167698480Y-76446871D03*
D28*
%TO.P,R13,2*%
%TO.N,Net-(R13-Pad2)*%
X172596522Y-82284130D03*
%TD*%
D15*
%TO.P,U2,1*%
%TO.N,Net-(R1-Pad2)*%
X97657500Y-68042500D03*
D16*
%TO.P,U2,2*%
%TO.N,LLS*%
X97657500Y-63942500D03*
%TO.P,U2,3*%
%TO.N,+3.3V*%
X95117500Y-63942500D03*
%TO.P,U2,4*%
%TO.N,Net-(U2-Pad4)*%
X95117500Y-68042500D03*
%TD*%
D13*
%TO.P,R11,1*%
%TO.N,BSEN*%
X118607500Y-105342500D03*
D14*
%TO.P,R11,2*%
%TO.N,GND*%
X126227500Y-105342500D03*
%TD*%
D15*
%TO.P,U6,1*%
%TO.N,Net-(R5-Pad2)*%
X152287500Y-59092500D03*
D16*
%TO.P,U6,2*%
%TO.N,FRS*%
X152287500Y-54992500D03*
%TO.P,U6,3*%
%TO.N,+3.3V*%
X149747500Y-54992500D03*
%TO.P,U6,4*%
%TO.N,Net-(U6-Pad4)*%
X149747500Y-59092500D03*
%TD*%
D15*
%TO.P,U3,1*%
%TO.N,Net-(U2-Pad4)*%
X108087500Y-63092500D03*
D16*
%TO.P,U3,2*%
%TO.N,LLS*%
X108087500Y-58992500D03*
%TO.P,U3,3*%
%TO.N,+3.3V*%
X105547500Y-58992500D03*
%TO.P,U3,4*%
%TO.N,GND*%
X105547500Y-63092500D03*
%TD*%
D35*
%TO.N,*%
X175900000Y-91000000D03*
X172800000Y-88400000D03*
X101400000Y-74400000D03*
X98000000Y-79000000D03*
X88300000Y-97900000D03*
X93200000Y-97400000D03*
X90300000Y-95200000D03*
X93200000Y-85300000D03*
X178600000Y-93100000D03*
X170200000Y-79300000D03*
X171800000Y-86900000D03*
%TO.N,GND*%
X149500000Y-103700000D03*
X151600000Y-107100000D03*
X123100000Y-97700000D03*
X132600000Y-77500000D03*
X174900000Y-68700000D03*
X156700000Y-57400000D03*
X98900000Y-60400000D03*
X158600000Y-88900000D03*
X165500000Y-98900000D03*
X159000000Y-118900000D03*
X110900000Y-120900000D03*
X113700000Y-115400000D03*
X157000000Y-100300000D03*
X144500000Y-94900000D03*
X141700000Y-108500000D03*
%TO.N,*%
X121000000Y-127500000D03*
X152600000Y-131200000D03*
X153300000Y-127000000D03*
X159800000Y-113300000D03*
X160200000Y-104500000D03*
X151900000Y-112100000D03*
X152000000Y-102800000D03*
X108400000Y-85100000D03*
X106200000Y-87300000D03*
X144100000Y-91300000D03*
X144600000Y-74600000D03*
X130600000Y-61600000D03*
X143000000Y-63000000D03*
X151100000Y-62700000D03*
X163000000Y-86800000D03*
X129400000Y-122800000D03*
X105000000Y-146700000D03*
X165100000Y-146300000D03*
X166500000Y-133500000D03*
X101700000Y-133800000D03*
X128900000Y-147800000D03*
X115800000Y-144700000D03*
X133100000Y-136800000D03*
X118300000Y-136200000D03*
X127200000Y-142100000D03*
X122400000Y-143800000D03*
X142600000Y-141600000D03*
X140300000Y-146700000D03*
X135200000Y-142700000D03*
X153700000Y-144800000D03*
X150700000Y-141500000D03*
X158700000Y-142700000D03*
X163100000Y-129000000D03*
X107400000Y-141000000D03*
X111700000Y-126600000D03*
X108300000Y-128600000D03*
X144500000Y-130700000D03*
X133500000Y-123700000D03*
X104700000Y-115800000D03*
X132100000Y-112000000D03*
X132200000Y-108100000D03*
X115000000Y-110600000D03*
X115300000Y-103600000D03*
X103000000Y-102800000D03*
X100600000Y-99300000D03*
X136300000Y-94900000D03*
X129900000Y-90900000D03*
X129900000Y-87900000D03*
X130100000Y-85500000D03*
X118000000Y-82400000D03*
X118100000Y-79300000D03*
X119600000Y-76400000D03*
X124700000Y-74400000D03*
X118900000Y-66600000D03*
X117500000Y-64300000D03*
X120800000Y-64200000D03*
X148300000Y-65100000D03*
X149900000Y-67300000D03*
X148800000Y-77100000D03*
X150500000Y-78700000D03*
X157300000Y-81600000D03*
X155900000Y-85600000D03*
X150300000Y-88300000D03*
%TO.N,Net-(R13-Pad2)*%
X179300000Y-99700000D03*
%TO.N,Net-(R14-Pad1)*%
X174900000Y-95900000D03*
%TO.N,Net-(J7-Pin_1)*%
X113300000Y-130400000D03*
%TO.N,Net-(J3-Pin_3)*%
X93700000Y-87700000D03*
X89100000Y-96800000D03*
%TO.N,Net-(R9-Pad2)*%
X100800000Y-83600000D03*
%TO.N,MLS*%
X141417500Y-123342500D03*
X138317500Y-120942500D03*
%TO.N,LHallB*%
X141117500Y-120942500D03*
%TO.N,MLS*%
X161917500Y-123542500D03*
%TO.N,MRS*%
X106417500Y-111642500D03*
X105817500Y-101800000D03*
%TO.N,Net-(U13-IN)*%
X129117500Y-106942500D03*
X130117500Y-102742500D03*
X128217500Y-96242500D03*
X128117500Y-92342500D03*
%TO.N,Net-(J7-Pin_1)*%
X143017500Y-124242500D03*
X111917500Y-115842500D03*
X111817500Y-104442500D03*
%TO.N,Net-(J7-Pin_6)*%
X108917500Y-120742500D03*
X107817500Y-102642500D03*
%TO.N,RHallA*%
X135217500Y-108842500D03*
X132717500Y-104942500D03*
%TO.N,RHallB*%
X131817500Y-118542500D03*
X130017500Y-108542500D03*
%TO.N,+3.3V*%
X155717500Y-98242500D03*
X153317500Y-107842500D03*
%TO.N,LLS*%
X139117500Y-87642500D03*
X137417500Y-85742500D03*
X114717500Y-68842500D03*
%TO.N,Net-(R3-Pad2)*%
X120817500Y-56242500D03*
X120817500Y-54542500D03*
%TO.N,FLS*%
X132617500Y-97242500D03*
%TO.N,Net-(R5-Pad2)*%
X138517500Y-61442500D03*
%TO.N,FRS*%
X138317500Y-77942500D03*
%TO.N,RRS*%
X137417500Y-90842500D03*
X144517500Y-84042500D03*
X144517500Y-84042500D03*
%TO.N,+3.3V*%
X153417500Y-80242500D03*
%TO.N,AIN2*%
X140217500Y-108142500D03*
%TO.N,BIN1*%
X150317500Y-108242500D03*
%TO.N,BIN2*%
X143117500Y-107342500D03*
%TO.N,Net-(U1A-PF1)*%
X143417500Y-108842500D03*
X148717500Y-98542500D03*
%TO.N,Net-(U1A-PF0)*%
X137217500Y-108342500D03*
%TD*%
D36*
%TO.N,+3.3V*%
X152400000Y-79225000D02*
X152400000Y-66170000D01*
X153417500Y-80242500D02*
X152400000Y-79225000D01*
X152400000Y-66170000D02*
X156217500Y-62352500D01*
%TO.N,VDD*%
X165992500Y-116607500D02*
X162717500Y-116607500D01*
X166142500Y-100442500D02*
X167900000Y-102200000D01*
X167900000Y-114700000D02*
X165992500Y-116607500D01*
X167900000Y-102200000D02*
X167900000Y-114700000D01*
X159917500Y-100442500D02*
X166142500Y-100442500D01*
D37*
%TO.N,Net-(R13-Pad2)*%
X179300000Y-105277540D02*
X179172449Y-105405091D01*
X179300000Y-99700000D02*
X179300000Y-105277540D01*
D36*
%TO.N,Net-(J2-Pin_1)*%
X177300000Y-93700000D02*
X180680551Y-97080551D01*
X177300000Y-89300000D02*
X177300000Y-93700000D01*
X180680551Y-97080551D02*
X180680551Y-100823909D01*
X167698480Y-79698480D02*
X177300000Y-89300000D01*
X167698480Y-76446871D02*
X167698480Y-79698480D01*
D37*
%TO.N,Net-(R14-Pad1)*%
X172400000Y-91200000D02*
X172400000Y-93400000D01*
X172400000Y-93400000D02*
X174900000Y-95900000D01*
X172400000Y-89900000D02*
X172400000Y-91200000D01*
X169700000Y-87200000D02*
X172400000Y-89900000D01*
X167900000Y-85400000D02*
X169700000Y-87200000D01*
X167900000Y-83300000D02*
X167900000Y-85400000D01*
X164523480Y-79923480D02*
X167900000Y-83300000D01*
X164523480Y-79113871D02*
X164523480Y-79923480D01*
%TO.N,Net-(J2-Pin_3)*%
X177539769Y-102539769D02*
X177539769Y-103459338D01*
X175900000Y-100900000D02*
X177539769Y-102539769D01*
X175900000Y-93500000D02*
X175900000Y-100900000D01*
X173800000Y-91400000D02*
X175900000Y-93500000D01*
X173800000Y-87400000D02*
X173800000Y-91400000D01*
X166200000Y-79800000D02*
X173800000Y-87400000D01*
X166200000Y-78200000D02*
X166200000Y-79800000D01*
X163551288Y-75551288D02*
X166200000Y-78200000D01*
X163551288Y-74670545D02*
X163551288Y-75551288D01*
D36*
%TO.N,VDD*%
X104417500Y-127060000D02*
X109900000Y-132542500D01*
X104417500Y-120642500D02*
X104417500Y-127060000D01*
X155057500Y-132542500D02*
X109900000Y-132542500D01*
%TO.N,Net-(J7-Pin_1)*%
X106417500Y-123517500D02*
X113300000Y-130400000D01*
X106417500Y-115842500D02*
X106417500Y-123517500D01*
D37*
%TO.N,MRS*%
X105817500Y-98966500D02*
X103329500Y-96478500D01*
X105817500Y-101800000D02*
X105817500Y-98966500D01*
D36*
%TO.N,VDD*%
X102317500Y-110742500D02*
X104117500Y-108942500D01*
X102317500Y-118542500D02*
X102317500Y-110742500D01*
X160017500Y-127582500D02*
X155057500Y-132542500D01*
X160017500Y-120642500D02*
X160017500Y-127582500D01*
X104417500Y-120642500D02*
X102317500Y-118542500D01*
X162717500Y-116607500D02*
X162717500Y-117942500D01*
X162717500Y-117942500D02*
X160017500Y-120642500D01*
X126197500Y-77062500D02*
X127217500Y-76042500D01*
X127217500Y-76042500D02*
X143042500Y-76042500D01*
X126197500Y-78052500D02*
X126197500Y-77062500D01*
X143042500Y-76042500D02*
X158562388Y-91562388D01*
X158562388Y-91562388D02*
X158562388Y-93842500D01*
D37*
%TO.N,Net-(R9-Pad2)*%
X92000000Y-102078569D02*
X90619231Y-103459338D01*
X92000000Y-94000000D02*
X92000000Y-102078569D01*
X100800000Y-85200000D02*
X92000000Y-94000000D01*
X100800000Y-83600000D02*
X100800000Y-85200000D01*
%TO.N,Net-(J3-Pin_3)*%
X93700000Y-87600000D02*
X93700000Y-87700000D01*
X104607713Y-76692287D02*
X93700000Y-87600000D01*
X104607713Y-74543544D02*
X104607713Y-76692287D01*
X89100000Y-96800000D02*
X88986551Y-96686551D01*
X88986551Y-96686551D02*
X88900000Y-96600000D01*
X88986551Y-105405091D02*
X89100000Y-96800000D01*
%TO.N,Net-(R12-Pad1)*%
X87400000Y-100745460D02*
X87478449Y-100823909D01*
X98240870Y-85459130D02*
X87400000Y-96300000D01*
X98737480Y-85459130D02*
X98240870Y-85459130D01*
X87400000Y-96300000D02*
X87400000Y-100745460D01*
D36*
%TO.N,Net-(J3-Pin_1)*%
X95886130Y-82411130D02*
X95435480Y-82411130D01*
X96387500Y-82912500D02*
X95886130Y-82411130D01*
X103075624Y-76224376D02*
X96387500Y-82912500D01*
X103075624Y-73257969D02*
X103075624Y-76224376D01*
D37*
%TO.N,MLS*%
X140717500Y-123342500D02*
X141417500Y-123342500D01*
X138317500Y-120942500D02*
X140717500Y-123342500D01*
%TO.N,LHallB*%
X140217500Y-120042500D02*
X141117500Y-120942500D01*
X128117500Y-120042500D02*
X140217500Y-120042500D01*
X126917500Y-118842500D02*
X128117500Y-120042500D01*
X120717500Y-120842500D02*
X122717500Y-118842500D01*
X122717500Y-118842500D02*
X126917500Y-118842500D01*
%TO.N,MLS*%
X166956500Y-95970500D02*
X167317500Y-96331500D01*
%TO.N,MRS*%
X126417500Y-113442500D02*
X128737500Y-115762500D01*
X114617500Y-113442500D02*
X126417500Y-113442500D01*
X112817500Y-111642500D02*
X114617500Y-113442500D01*
X106417500Y-111642500D02*
X112817500Y-111642500D01*
%TO.N,Net-(U13-IN)*%
X130117500Y-105942500D02*
X129117500Y-106942500D01*
X130117500Y-102742500D02*
X130117500Y-105942500D01*
%TO.N,RHallB*%
X127717500Y-102042500D02*
X127717500Y-107342500D01*
X127717500Y-107342500D02*
X128917500Y-108542500D01*
X126197500Y-100522500D02*
X127717500Y-102042500D01*
X128917500Y-108542500D02*
X130017500Y-108542500D01*
%TO.N,Net-(U13-IN)*%
X128117500Y-96142500D02*
X128217500Y-96242500D01*
X128117500Y-92342500D02*
X128117500Y-96142500D01*
%TO.N,MLS*%
X166956500Y-95970500D02*
X164956500Y-95970500D01*
D36*
%TO.N,Net-(J7-Pin_1)*%
X121317500Y-89442500D02*
X125167500Y-93292500D01*
X116717500Y-90942500D02*
X118217500Y-89442500D01*
X125167500Y-93292500D02*
X126197500Y-93292500D01*
X118217500Y-89442500D02*
X121317500Y-89442500D01*
X116717500Y-91942500D02*
X116717500Y-90942500D01*
X112417500Y-93642500D02*
X115017500Y-93642500D01*
X115017500Y-93642500D02*
X116717500Y-91942500D01*
X111817500Y-94242500D02*
X112417500Y-93642500D01*
X111817500Y-104442500D02*
X111817500Y-94242500D01*
X143017500Y-120992500D02*
X143192500Y-120817500D01*
X143017500Y-124242500D02*
X143017500Y-120992500D01*
X111917500Y-115842500D02*
X106417500Y-115842500D01*
X111817500Y-104442500D02*
X111717500Y-104142500D01*
%TO.N,Net-(J7-Pin_6)*%
X155892500Y-127667500D02*
X155892500Y-120817500D01*
X154817500Y-128742500D02*
X155892500Y-127667500D01*
X116917500Y-128742500D02*
X154817500Y-128742500D01*
X108917500Y-120742500D02*
X116917500Y-128742500D01*
X107817500Y-102642500D02*
X107917500Y-102742500D01*
X107917500Y-102742500D02*
X107817500Y-102842500D01*
X107917500Y-91242500D02*
X107817500Y-102642500D01*
X107917500Y-91142500D02*
X107917500Y-91242500D01*
X112017500Y-87042500D02*
X107917500Y-91142500D01*
X122487500Y-87042500D02*
X112017500Y-87042500D01*
X126197500Y-90752500D02*
X122487500Y-87042500D01*
D37*
%TO.N,BSEN*%
X120317500Y-99142500D02*
X119817500Y-99642500D01*
X127817500Y-99142500D02*
X120317500Y-99142500D01*
X128737500Y-100062500D02*
X127817500Y-99142500D01*
X128737500Y-100522500D02*
X128737500Y-100062500D01*
%TO.N,Net-(U1A-PF0)*%
X128617500Y-97842500D02*
X129917500Y-99142500D01*
X125317500Y-97842500D02*
X128617500Y-97842500D01*
X129917500Y-99142500D02*
X129917500Y-101042500D01*
X120467500Y-92992500D02*
X125317500Y-97842500D01*
X120467500Y-91492500D02*
X120467500Y-92992500D01*
X129917500Y-101042500D02*
X137217500Y-108342500D01*
%TO.N,BSEN*%
X119817500Y-104132500D02*
X119817500Y-99642500D01*
X118607500Y-105342500D02*
X119817500Y-104132500D01*
%TO.N,MRS*%
X101329500Y-96478500D02*
X103329500Y-96478500D01*
D36*
%TO.N,+3.3V*%
X150717500Y-126342500D02*
X153352500Y-123707500D01*
X123257500Y-123782500D02*
X125817500Y-126342500D01*
X125817500Y-126342500D02*
X150717500Y-126342500D01*
X153352500Y-123707500D02*
X153352500Y-120817500D01*
X123257500Y-120842500D02*
X123257500Y-123782500D01*
D37*
%TO.N,SCL*%
X133837500Y-115762500D02*
X133817500Y-115762500D01*
X135017500Y-116942500D02*
X133837500Y-115762500D01*
X144817500Y-116942500D02*
X135017500Y-116942500D01*
X145217500Y-116542500D02*
X144817500Y-116942500D01*
X146957500Y-112902500D02*
X145217500Y-114642500D01*
X145217500Y-114642500D02*
X145217500Y-116542500D01*
X146957500Y-112292500D02*
X146957500Y-112902500D01*
%TO.N,RHallA*%
X132717500Y-106342500D02*
X135217500Y-108842500D01*
X132717500Y-104942500D02*
X132717500Y-106342500D01*
%TO.N,RHallB*%
X131817500Y-118542500D02*
X148537500Y-118542500D01*
X130017500Y-108542500D02*
X129917500Y-108542500D01*
X150812500Y-120817500D02*
X148537500Y-118542500D01*
D36*
%TO.N,+3.3V*%
X153317500Y-100642500D02*
X155717500Y-98242500D01*
X153317500Y-107842500D02*
X153317500Y-100642500D01*
D37*
%TO.N,LLS*%
X139117500Y-87642500D02*
X139017500Y-87342500D01*
X137417500Y-85742500D02*
X139117500Y-87642500D01*
X114717500Y-68842500D02*
X114517500Y-68442500D01*
X112927500Y-66852500D02*
X114717500Y-68842500D01*
X101817500Y-66852500D02*
X112927500Y-66852500D01*
%TO.N,Net-(U4-Pad4)*%
X126147500Y-59512500D02*
X126147500Y-57692500D01*
X123617500Y-62042500D02*
X126147500Y-59512500D01*
X121117500Y-62042500D02*
X123617500Y-62042500D01*
X118600710Y-59525710D02*
X121117500Y-62042500D01*
X118600710Y-59442500D02*
X118600710Y-59525710D01*
%TO.N,Net-(U2-Pad4)*%
X105737500Y-65442500D02*
X97717500Y-65442500D01*
X108087500Y-63092500D02*
X105737500Y-65442500D01*
X97717500Y-65442500D02*
X95117500Y-68042500D01*
%TO.N,Net-(R3-Pad2)*%
X120817500Y-56242500D02*
X120817500Y-56142500D01*
X120817500Y-54542500D02*
X120817500Y-56242500D01*
%TO.N,FLS*%
X132617500Y-84742500D02*
X132617500Y-97242500D01*
X129617500Y-81742500D02*
X132617500Y-84742500D01*
X124517500Y-81742500D02*
X129617500Y-81742500D01*
X123017500Y-80242500D02*
X124517500Y-81742500D01*
X123017500Y-65942500D02*
X123017500Y-80242500D01*
X129807500Y-59152500D02*
X123017500Y-65942500D01*
X132317500Y-59152500D02*
X129807500Y-59152500D01*
%TO.N,Net-(R7-Pad2)*%
X173517500Y-61242500D02*
X171917500Y-61242500D01*
X174517500Y-62242500D02*
X173517500Y-61242500D01*
X174517500Y-65579291D02*
X174517500Y-62242500D01*
X174517500Y-65579291D02*
X173004291Y-67092500D01*
X167417500Y-56742500D02*
X171917500Y-61242500D01*
X164017500Y-56742500D02*
X167417500Y-56742500D01*
X162617500Y-55342500D02*
X164017500Y-56742500D01*
X156827500Y-55342500D02*
X162617500Y-55342500D01*
X156217500Y-54732500D02*
X156827500Y-55342500D01*
%TO.N,Net-(U8-Pad4)*%
X170014291Y-67542500D02*
X170464291Y-67092500D01*
X164217500Y-67542500D02*
X170014291Y-67542500D01*
X162787500Y-66112500D02*
X164217500Y-67542500D01*
X162787500Y-62392500D02*
X162787500Y-66112500D01*
%TO.N,Net-(R5-Pad2)*%
X149637500Y-61742500D02*
X138817500Y-61742500D01*
X152287500Y-59092500D02*
X149637500Y-61742500D01*
X138817500Y-61742500D02*
X138517500Y-61442500D01*
X138517500Y-61442500D02*
X138517500Y-61642500D01*
%TO.N,FRS*%
X138317500Y-77942500D02*
X138017500Y-77942500D01*
X133817500Y-82142500D02*
X138317500Y-77942500D01*
X133817500Y-100522500D02*
X133817500Y-82142500D01*
%TO.N,RRS*%
X137417500Y-90842500D02*
X137317500Y-90542500D01*
X140917500Y-86942500D02*
X137417500Y-90842500D01*
X142617500Y-86942500D02*
X140917500Y-86942500D01*
X144517500Y-85042500D02*
X142617500Y-86942500D01*
X144517500Y-84042500D02*
X144517500Y-85042500D01*
X170044291Y-65952500D02*
X166717500Y-65952500D01*
X173004291Y-62992500D02*
X170044291Y-65952500D01*
D36*
%TO.N,+3.3V*%
X103517500Y-92290500D02*
X103329500Y-92478500D01*
X116117500Y-74942500D02*
X103517500Y-87542500D01*
X116117500Y-67152500D02*
X116117500Y-74942500D01*
X103517500Y-87542500D02*
X103517500Y-92290500D01*
%TO.N,VCC*%
X126727500Y-110142500D02*
X126027500Y-110842500D01*
X154692500Y-110142500D02*
X126727500Y-110142500D01*
X156217500Y-111667500D02*
X154692500Y-110142500D01*
D37*
%TO.N,AIN2*%
X140217500Y-108142500D02*
X140217500Y-108042500D01*
X135017500Y-87012500D02*
X135017500Y-102342500D01*
X140217500Y-107542500D02*
X140217500Y-108142500D01*
X135017500Y-102342500D02*
X140217500Y-107542500D01*
X141437500Y-80592500D02*
X135017500Y-87012500D01*
%TO.N,BIN1*%
X146317500Y-88212500D02*
X141437500Y-88212500D01*
X150317500Y-92212500D02*
X146317500Y-88212500D01*
X150317500Y-108242500D02*
X150317500Y-92212500D01*
%TO.N,BIN2*%
X143217500Y-107242500D02*
X143117500Y-107342500D01*
X143217500Y-103342500D02*
X143217500Y-107242500D01*
X142717500Y-102842500D02*
X143217500Y-103342500D01*
X142717500Y-92032500D02*
X142717500Y-102842500D01*
X141437500Y-90752500D02*
X142717500Y-92032500D01*
%TO.N,Net-(U1A-PF1)*%
X145717500Y-106542500D02*
X143417500Y-108842500D01*
X145717500Y-103142500D02*
X145717500Y-106542500D01*
X147817500Y-99742500D02*
X147817500Y-101042500D01*
X147817500Y-101042500D02*
X145717500Y-103142500D01*
X147817500Y-99442500D02*
X147817500Y-99742500D01*
X148717500Y-98542500D02*
X147817500Y-99442500D01*
%TO.N,SDA*%
X142567500Y-114142500D02*
X132897500Y-114142500D01*
X132897500Y-114142500D02*
X131277500Y-115762500D01*
X144417500Y-112292500D02*
X142567500Y-114142500D01*
D36*
%TO.N,Net-(J2-Pin_1)*%
X165083377Y-73831768D02*
X167698480Y-76446871D01*
X165083377Y-73384970D02*
X165083377Y-73831768D01*
X163797802Y-72099395D02*
X165083377Y-73384970D01*
X163797802Y-71852881D02*
X163797802Y-72099395D01*
%TO.N,Net-(J3-Pin_1)*%
X85845769Y-102769662D02*
X85783803Y-102707696D01*
X104361199Y-71972394D02*
X103075624Y-73257969D01*
X104361199Y-71725880D02*
X104361199Y-71972394D01*
%TO.N,+3.3V*%
X112217500Y-63252500D02*
X116117500Y-67152500D01*
X101817500Y-62242500D02*
X96817500Y-62242500D01*
X105067500Y-58992500D02*
X101817500Y-62242500D01*
X105547500Y-58992500D02*
X105067500Y-58992500D01*
X96817500Y-62242500D02*
X95117500Y-63942500D01*
X110217500Y-60942500D02*
X107497500Y-60942500D01*
X107497500Y-60942500D02*
X105547500Y-58992500D01*
X112217500Y-62942500D02*
X110217500Y-60942500D01*
X112217500Y-63252500D02*
X112217500Y-62942500D01*
X112217500Y-59442500D02*
X112217500Y-63252500D01*
X116060710Y-55599290D02*
X112217500Y-59442500D01*
X116060710Y-55342500D02*
X116060710Y-55599290D01*
X122317500Y-57442500D02*
X122417500Y-57342500D01*
X122417500Y-57342500D02*
X122417500Y-60162500D01*
X122417500Y-56742500D02*
X122417500Y-57342500D01*
X116060710Y-56485710D02*
X117017500Y-57442500D01*
X116060710Y-55342500D02*
X116060710Y-56485710D01*
X117017500Y-57442500D02*
X122317500Y-57442500D01*
X125367500Y-53592500D02*
X122317500Y-56642500D01*
X126147500Y-53592500D02*
X125367500Y-53592500D01*
X122317500Y-56642500D02*
X122417500Y-56742500D01*
X128197500Y-55642500D02*
X126147500Y-53592500D01*
X133917500Y-55642500D02*
X128197500Y-55642500D01*
X136517500Y-58242500D02*
X133917500Y-55642500D01*
X136517500Y-59152500D02*
X136517500Y-58242500D01*
X138567500Y-53592500D02*
X136517500Y-55642500D01*
X140047500Y-53592500D02*
X138567500Y-53592500D01*
X136517500Y-55642500D02*
X136517500Y-59152500D01*
X141447500Y-54992500D02*
X140047500Y-53592500D01*
X149747500Y-54992500D02*
X141447500Y-54992500D01*
X151597500Y-56842500D02*
X149747500Y-54992500D01*
X153817500Y-56842500D02*
X151597500Y-56842500D01*
X156217500Y-59242500D02*
X153817500Y-56842500D01*
X156217500Y-62352500D02*
X156217500Y-59242500D01*
X168167500Y-62992500D02*
X170464291Y-62992500D01*
X161617500Y-60442500D02*
X165617500Y-60442500D01*
X160247500Y-59072500D02*
X161617500Y-60442500D01*
X165617500Y-60442500D02*
X168167500Y-62992500D01*
X160247500Y-58292500D02*
X160247500Y-59072500D01*
X156217500Y-62322500D02*
X160247500Y-58292500D01*
X156217500Y-62352500D02*
X156217500Y-62322500D01*
X153417500Y-80431500D02*
X153417500Y-80242500D01*
X164956500Y-91970500D02*
X153417500Y-80431500D01*
%TO.N,VCC*%
X124027500Y-108842500D02*
X126027500Y-110842500D01*
X116717500Y-108842500D02*
X124027500Y-108842500D01*
X114277500Y-106402500D02*
X116717500Y-108842500D01*
X104117500Y-106402500D02*
X114277500Y-106402500D01*
%TO.N,+3.3V*%
X101329500Y-92478500D02*
X103329500Y-92478500D01*
%TO.N,VDD*%
X158562388Y-99087388D02*
X159917500Y-100442500D01*
X158562388Y-93842500D02*
X158562388Y-99087388D01*
%TO.N,VCC*%
X157227500Y-111667500D02*
X165592500Y-103302500D01*
X156217500Y-111667500D02*
X157227500Y-111667500D01*
%TD*%
M02*
