%TF.GenerationSoftware,KiCad,Pcbnew,7.0.1*%
%TF.CreationDate,2023-05-16T11:07:40+09:00*%
%TF.ProjectId,trace,74726163-652e-46b6-9963-61645f706362,rev?*%
%TF.SameCoordinates,Original*%
%TF.FileFunction,Legend,Bot*%
%TF.FilePolarity,Positive*%
%FSLAX46Y46*%
G04 Gerber Fmt 4.6, Leading zero omitted, Abs format (unit mm)*
G04 Created by KiCad (PCBNEW 7.0.1) date 2023-05-16 11:07:40*
%MOMM*%
%LPD*%
G01*
G04 APERTURE LIST*
%ADD10C,0.100000*%
G04 APERTURE END LIST*
D10*
X129014333Y-113366666D02*
X128314333Y-113366666D01*
X128314333Y-113366666D02*
X128314333Y-113533333D01*
X128314333Y-113533333D02*
X128347666Y-113633333D01*
X128347666Y-113633333D02*
X128414333Y-113700000D01*
X128414333Y-113700000D02*
X128481000Y-113733333D01*
X128481000Y-113733333D02*
X128614333Y-113766666D01*
X128614333Y-113766666D02*
X128714333Y-113766666D01*
X128714333Y-113766666D02*
X128847666Y-113733333D01*
X128847666Y-113733333D02*
X128914333Y-113700000D01*
X128914333Y-113700000D02*
X128981000Y-113633333D01*
X128981000Y-113633333D02*
X129014333Y-113533333D01*
X129014333Y-113533333D02*
X129014333Y-113366666D01*
X128314333Y-114000000D02*
X128314333Y-114433333D01*
X128314333Y-114433333D02*
X128581000Y-114200000D01*
X128581000Y-114200000D02*
X128581000Y-114300000D01*
X128581000Y-114300000D02*
X128614333Y-114366666D01*
X128614333Y-114366666D02*
X128647666Y-114400000D01*
X128647666Y-114400000D02*
X128714333Y-114433333D01*
X128714333Y-114433333D02*
X128881000Y-114433333D01*
X128881000Y-114433333D02*
X128947666Y-114400000D01*
X128947666Y-114400000D02*
X128981000Y-114366666D01*
X128981000Y-114366666D02*
X129014333Y-114300000D01*
X129014333Y-114300000D02*
X129014333Y-114100000D01*
X129014333Y-114100000D02*
X128981000Y-114033333D01*
X128981000Y-114033333D02*
X128947666Y-114000000D01*
X149114333Y-117366666D02*
X148414333Y-117366666D01*
X148414333Y-117366666D02*
X148414333Y-117533333D01*
X148414333Y-117533333D02*
X148447666Y-117633333D01*
X148447666Y-117633333D02*
X148514333Y-117700000D01*
X148514333Y-117700000D02*
X148581000Y-117733333D01*
X148581000Y-117733333D02*
X148714333Y-117766666D01*
X148714333Y-117766666D02*
X148814333Y-117766666D01*
X148814333Y-117766666D02*
X148947666Y-117733333D01*
X148947666Y-117733333D02*
X149014333Y-117700000D01*
X149014333Y-117700000D02*
X149081000Y-117633333D01*
X149081000Y-117633333D02*
X149114333Y-117533333D01*
X149114333Y-117533333D02*
X149114333Y-117366666D01*
X149114333Y-118433333D02*
X149114333Y-118033333D01*
X149114333Y-118233333D02*
X148414333Y-118233333D01*
X148414333Y-118233333D02*
X148514333Y-118166666D01*
X148514333Y-118166666D02*
X148581000Y-118100000D01*
X148581000Y-118100000D02*
X148614333Y-118033333D01*
X149114333Y-119100000D02*
X149114333Y-118700000D01*
X149114333Y-118900000D02*
X148414333Y-118900000D01*
X148414333Y-118900000D02*
X148514333Y-118833333D01*
X148514333Y-118833333D02*
X148581000Y-118766667D01*
X148581000Y-118766667D02*
X148614333Y-118700000D01*
X151014333Y-123466666D02*
X150681000Y-123233333D01*
X151014333Y-123066666D02*
X150314333Y-123066666D01*
X150314333Y-123066666D02*
X150314333Y-123333333D01*
X150314333Y-123333333D02*
X150347666Y-123400000D01*
X150347666Y-123400000D02*
X150381000Y-123433333D01*
X150381000Y-123433333D02*
X150447666Y-123466666D01*
X150447666Y-123466666D02*
X150547666Y-123466666D01*
X150547666Y-123466666D02*
X150614333Y-123433333D01*
X150614333Y-123433333D02*
X150647666Y-123400000D01*
X150647666Y-123400000D02*
X150681000Y-123333333D01*
X150681000Y-123333333D02*
X150681000Y-123066666D01*
X151014333Y-123766666D02*
X150314333Y-123766666D01*
X150647666Y-123766666D02*
X150647666Y-124166666D01*
X151014333Y-124166666D02*
X150314333Y-124166666D01*
X150647666Y-124733333D02*
X150681000Y-124833333D01*
X150681000Y-124833333D02*
X150714333Y-124866666D01*
X150714333Y-124866666D02*
X150781000Y-124899999D01*
X150781000Y-124899999D02*
X150881000Y-124899999D01*
X150881000Y-124899999D02*
X150947666Y-124866666D01*
X150947666Y-124866666D02*
X150981000Y-124833333D01*
X150981000Y-124833333D02*
X151014333Y-124766666D01*
X151014333Y-124766666D02*
X151014333Y-124499999D01*
X151014333Y-124499999D02*
X150314333Y-124499999D01*
X150314333Y-124499999D02*
X150314333Y-124733333D01*
X150314333Y-124733333D02*
X150347666Y-124799999D01*
X150347666Y-124799999D02*
X150381000Y-124833333D01*
X150381000Y-124833333D02*
X150447666Y-124866666D01*
X150447666Y-124866666D02*
X150514333Y-124866666D01*
X150514333Y-124866666D02*
X150581000Y-124833333D01*
X150581000Y-124833333D02*
X150614333Y-124799999D01*
X150614333Y-124799999D02*
X150647666Y-124733333D01*
X150647666Y-124733333D02*
X150647666Y-124499999D01*
X143847666Y-123300000D02*
X143881000Y-123400000D01*
X143881000Y-123400000D02*
X143914333Y-123433333D01*
X143914333Y-123433333D02*
X143981000Y-123466666D01*
X143981000Y-123466666D02*
X144081000Y-123466666D01*
X144081000Y-123466666D02*
X144147666Y-123433333D01*
X144147666Y-123433333D02*
X144181000Y-123400000D01*
X144181000Y-123400000D02*
X144214333Y-123333333D01*
X144214333Y-123333333D02*
X144214333Y-123066666D01*
X144214333Y-123066666D02*
X143514333Y-123066666D01*
X143514333Y-123066666D02*
X143514333Y-123300000D01*
X143514333Y-123300000D02*
X143547666Y-123366666D01*
X143547666Y-123366666D02*
X143581000Y-123400000D01*
X143581000Y-123400000D02*
X143647666Y-123433333D01*
X143647666Y-123433333D02*
X143714333Y-123433333D01*
X143714333Y-123433333D02*
X143781000Y-123400000D01*
X143781000Y-123400000D02*
X143814333Y-123366666D01*
X143814333Y-123366666D02*
X143847666Y-123300000D01*
X143847666Y-123300000D02*
X143847666Y-123066666D01*
X143514333Y-123900000D02*
X143514333Y-124033333D01*
X143514333Y-124033333D02*
X143547666Y-124100000D01*
X143547666Y-124100000D02*
X143614333Y-124166666D01*
X143614333Y-124166666D02*
X143747666Y-124200000D01*
X143747666Y-124200000D02*
X143981000Y-124200000D01*
X143981000Y-124200000D02*
X144114333Y-124166666D01*
X144114333Y-124166666D02*
X144181000Y-124100000D01*
X144181000Y-124100000D02*
X144214333Y-124033333D01*
X144214333Y-124033333D02*
X144214333Y-123900000D01*
X144214333Y-123900000D02*
X144181000Y-123833333D01*
X144181000Y-123833333D02*
X144114333Y-123766666D01*
X144114333Y-123766666D02*
X143981000Y-123733333D01*
X143981000Y-123733333D02*
X143747666Y-123733333D01*
X143747666Y-123733333D02*
X143614333Y-123766666D01*
X143614333Y-123766666D02*
X143547666Y-123833333D01*
X143547666Y-123833333D02*
X143514333Y-123900000D01*
X144214333Y-124866666D02*
X144214333Y-124466666D01*
X144214333Y-124666666D02*
X143514333Y-124666666D01*
X143514333Y-124666666D02*
X143614333Y-124599999D01*
X143614333Y-124599999D02*
X143681000Y-124533333D01*
X143681000Y-124533333D02*
X143714333Y-124466666D01*
X148614333Y-123466666D02*
X148281000Y-123233333D01*
X148614333Y-123066666D02*
X147914333Y-123066666D01*
X147914333Y-123066666D02*
X147914333Y-123333333D01*
X147914333Y-123333333D02*
X147947666Y-123400000D01*
X147947666Y-123400000D02*
X147981000Y-123433333D01*
X147981000Y-123433333D02*
X148047666Y-123466666D01*
X148047666Y-123466666D02*
X148147666Y-123466666D01*
X148147666Y-123466666D02*
X148214333Y-123433333D01*
X148214333Y-123433333D02*
X148247666Y-123400000D01*
X148247666Y-123400000D02*
X148281000Y-123333333D01*
X148281000Y-123333333D02*
X148281000Y-123066666D01*
X148614333Y-123766666D02*
X147914333Y-123766666D01*
X148247666Y-123766666D02*
X148247666Y-124166666D01*
X148614333Y-124166666D02*
X147914333Y-124166666D01*
X148414333Y-124466666D02*
X148414333Y-124799999D01*
X148614333Y-124399999D02*
X147914333Y-124633333D01*
X147914333Y-124633333D02*
X148614333Y-124866666D01*
X128714333Y-101933333D02*
X128714333Y-102266666D01*
X128914333Y-101866666D02*
X128214333Y-102100000D01*
X128214333Y-102100000D02*
X128914333Y-102333333D01*
X128214333Y-102866666D02*
X128214333Y-102733333D01*
X128214333Y-102733333D02*
X128247666Y-102666666D01*
X128247666Y-102666666D02*
X128281000Y-102633333D01*
X128281000Y-102633333D02*
X128381000Y-102566666D01*
X128381000Y-102566666D02*
X128514333Y-102533333D01*
X128514333Y-102533333D02*
X128781000Y-102533333D01*
X128781000Y-102533333D02*
X128847666Y-102566666D01*
X128847666Y-102566666D02*
X128881000Y-102600000D01*
X128881000Y-102600000D02*
X128914333Y-102666666D01*
X128914333Y-102666666D02*
X128914333Y-102800000D01*
X128914333Y-102800000D02*
X128881000Y-102866666D01*
X128881000Y-102866666D02*
X128847666Y-102900000D01*
X128847666Y-102900000D02*
X128781000Y-102933333D01*
X128781000Y-102933333D02*
X128614333Y-102933333D01*
X128614333Y-102933333D02*
X128547666Y-102900000D01*
X128547666Y-102900000D02*
X128514333Y-102866666D01*
X128514333Y-102866666D02*
X128481000Y-102800000D01*
X128481000Y-102800000D02*
X128481000Y-102666666D01*
X128481000Y-102666666D02*
X128514333Y-102600000D01*
X128514333Y-102600000D02*
X128547666Y-102566666D01*
X128547666Y-102566666D02*
X128614333Y-102533333D01*
X113014333Y-123233333D02*
X113014333Y-123566666D01*
X113214333Y-123166666D02*
X112514333Y-123400000D01*
X112514333Y-123400000D02*
X113214333Y-123633333D01*
X112514333Y-124000000D02*
X112514333Y-124133333D01*
X112514333Y-124133333D02*
X112547666Y-124200000D01*
X112547666Y-124200000D02*
X112614333Y-124266666D01*
X112614333Y-124266666D02*
X112747666Y-124300000D01*
X112747666Y-124300000D02*
X112981000Y-124300000D01*
X112981000Y-124300000D02*
X113114333Y-124266666D01*
X113114333Y-124266666D02*
X113181000Y-124200000D01*
X113181000Y-124200000D02*
X113214333Y-124133333D01*
X113214333Y-124133333D02*
X113214333Y-124000000D01*
X113214333Y-124000000D02*
X113181000Y-123933333D01*
X113181000Y-123933333D02*
X113114333Y-123866666D01*
X113114333Y-123866666D02*
X112981000Y-123833333D01*
X112981000Y-123833333D02*
X112747666Y-123833333D01*
X112747666Y-123833333D02*
X112614333Y-123866666D01*
X112614333Y-123866666D02*
X112547666Y-123933333D01*
X112547666Y-123933333D02*
X112514333Y-124000000D01*
X113214333Y-124966666D02*
X113214333Y-124566666D01*
X113214333Y-124766666D02*
X112514333Y-124766666D01*
X112514333Y-124766666D02*
X112614333Y-124699999D01*
X112614333Y-124699999D02*
X112681000Y-124633333D01*
X112681000Y-124633333D02*
X112714333Y-124566666D01*
X120914333Y-123400000D02*
X120914333Y-123066666D01*
X120914333Y-123066666D02*
X120214333Y-123066666D01*
X120914333Y-123633333D02*
X120214333Y-123633333D01*
X120547666Y-123633333D02*
X120547666Y-124033333D01*
X120914333Y-124033333D02*
X120214333Y-124033333D01*
X120547666Y-124600000D02*
X120581000Y-124700000D01*
X120581000Y-124700000D02*
X120614333Y-124733333D01*
X120614333Y-124733333D02*
X120681000Y-124766666D01*
X120681000Y-124766666D02*
X120781000Y-124766666D01*
X120781000Y-124766666D02*
X120847666Y-124733333D01*
X120847666Y-124733333D02*
X120881000Y-124700000D01*
X120881000Y-124700000D02*
X120914333Y-124633333D01*
X120914333Y-124633333D02*
X120914333Y-124366666D01*
X120914333Y-124366666D02*
X120214333Y-124366666D01*
X120214333Y-124366666D02*
X120214333Y-124600000D01*
X120214333Y-124600000D02*
X120247666Y-124666666D01*
X120247666Y-124666666D02*
X120281000Y-124700000D01*
X120281000Y-124700000D02*
X120347666Y-124733333D01*
X120347666Y-124733333D02*
X120414333Y-124733333D01*
X120414333Y-124733333D02*
X120481000Y-124700000D01*
X120481000Y-124700000D02*
X120514333Y-124666666D01*
X120514333Y-124666666D02*
X120547666Y-124600000D01*
X120547666Y-124600000D02*
X120547666Y-124366666D01*
X134014333Y-113566666D02*
X133314333Y-113566666D01*
X133314333Y-113566666D02*
X133314333Y-113733333D01*
X133314333Y-113733333D02*
X133347666Y-113833333D01*
X133347666Y-113833333D02*
X133414333Y-113900000D01*
X133414333Y-113900000D02*
X133481000Y-113933333D01*
X133481000Y-113933333D02*
X133614333Y-113966666D01*
X133614333Y-113966666D02*
X133714333Y-113966666D01*
X133714333Y-113966666D02*
X133847666Y-113933333D01*
X133847666Y-113933333D02*
X133914333Y-113900000D01*
X133914333Y-113900000D02*
X133981000Y-113833333D01*
X133981000Y-113833333D02*
X134014333Y-113733333D01*
X134014333Y-113733333D02*
X134014333Y-113566666D01*
X133314333Y-114600000D02*
X133314333Y-114266666D01*
X133314333Y-114266666D02*
X133647666Y-114233333D01*
X133647666Y-114233333D02*
X133614333Y-114266666D01*
X133614333Y-114266666D02*
X133581000Y-114333333D01*
X133581000Y-114333333D02*
X133581000Y-114500000D01*
X133581000Y-114500000D02*
X133614333Y-114566666D01*
X133614333Y-114566666D02*
X133647666Y-114600000D01*
X133647666Y-114600000D02*
X133714333Y-114633333D01*
X133714333Y-114633333D02*
X133881000Y-114633333D01*
X133881000Y-114633333D02*
X133947666Y-114600000D01*
X133947666Y-114600000D02*
X133981000Y-114566666D01*
X133981000Y-114566666D02*
X134014333Y-114500000D01*
X134014333Y-114500000D02*
X134014333Y-114333333D01*
X134014333Y-114333333D02*
X133981000Y-114266666D01*
X133981000Y-114266666D02*
X133947666Y-114233333D01*
X118147666Y-102333333D02*
X118114333Y-102266666D01*
X118114333Y-102266666D02*
X118114333Y-102166666D01*
X118114333Y-102166666D02*
X118147666Y-102066666D01*
X118147666Y-102066666D02*
X118214333Y-102000000D01*
X118214333Y-102000000D02*
X118281000Y-101966666D01*
X118281000Y-101966666D02*
X118414333Y-101933333D01*
X118414333Y-101933333D02*
X118514333Y-101933333D01*
X118514333Y-101933333D02*
X118647666Y-101966666D01*
X118647666Y-101966666D02*
X118714333Y-102000000D01*
X118714333Y-102000000D02*
X118781000Y-102066666D01*
X118781000Y-102066666D02*
X118814333Y-102166666D01*
X118814333Y-102166666D02*
X118814333Y-102233333D01*
X118814333Y-102233333D02*
X118781000Y-102333333D01*
X118781000Y-102333333D02*
X118747666Y-102366666D01*
X118747666Y-102366666D02*
X118514333Y-102366666D01*
X118514333Y-102366666D02*
X118514333Y-102233333D01*
X118814333Y-102666666D02*
X118114333Y-102666666D01*
X118114333Y-102666666D02*
X118814333Y-103066666D01*
X118814333Y-103066666D02*
X118114333Y-103066666D01*
X118814333Y-103399999D02*
X118114333Y-103399999D01*
X118114333Y-103399999D02*
X118114333Y-103566666D01*
X118114333Y-103566666D02*
X118147666Y-103666666D01*
X118147666Y-103666666D02*
X118214333Y-103733333D01*
X118214333Y-103733333D02*
X118281000Y-103766666D01*
X118281000Y-103766666D02*
X118414333Y-103799999D01*
X118414333Y-103799999D02*
X118514333Y-103799999D01*
X118514333Y-103799999D02*
X118647666Y-103766666D01*
X118647666Y-103766666D02*
X118714333Y-103733333D01*
X118714333Y-103733333D02*
X118781000Y-103666666D01*
X118781000Y-103666666D02*
X118814333Y-103566666D01*
X118814333Y-103566666D02*
X118814333Y-103399999D01*
X141714333Y-117066666D02*
X141014333Y-117066666D01*
X141014333Y-117066666D02*
X141014333Y-117233333D01*
X141014333Y-117233333D02*
X141047666Y-117333333D01*
X141047666Y-117333333D02*
X141114333Y-117400000D01*
X141114333Y-117400000D02*
X141181000Y-117433333D01*
X141181000Y-117433333D02*
X141314333Y-117466666D01*
X141314333Y-117466666D02*
X141414333Y-117466666D01*
X141414333Y-117466666D02*
X141547666Y-117433333D01*
X141547666Y-117433333D02*
X141614333Y-117400000D01*
X141614333Y-117400000D02*
X141681000Y-117333333D01*
X141681000Y-117333333D02*
X141714333Y-117233333D01*
X141714333Y-117233333D02*
X141714333Y-117066666D01*
X141314333Y-117866666D02*
X141281000Y-117800000D01*
X141281000Y-117800000D02*
X141247666Y-117766666D01*
X141247666Y-117766666D02*
X141181000Y-117733333D01*
X141181000Y-117733333D02*
X141147666Y-117733333D01*
X141147666Y-117733333D02*
X141081000Y-117766666D01*
X141081000Y-117766666D02*
X141047666Y-117800000D01*
X141047666Y-117800000D02*
X141014333Y-117866666D01*
X141014333Y-117866666D02*
X141014333Y-118000000D01*
X141014333Y-118000000D02*
X141047666Y-118066666D01*
X141047666Y-118066666D02*
X141081000Y-118100000D01*
X141081000Y-118100000D02*
X141147666Y-118133333D01*
X141147666Y-118133333D02*
X141181000Y-118133333D01*
X141181000Y-118133333D02*
X141247666Y-118100000D01*
X141247666Y-118100000D02*
X141281000Y-118066666D01*
X141281000Y-118066666D02*
X141314333Y-118000000D01*
X141314333Y-118000000D02*
X141314333Y-117866666D01*
X141314333Y-117866666D02*
X141347666Y-117800000D01*
X141347666Y-117800000D02*
X141381000Y-117766666D01*
X141381000Y-117766666D02*
X141447666Y-117733333D01*
X141447666Y-117733333D02*
X141581000Y-117733333D01*
X141581000Y-117733333D02*
X141647666Y-117766666D01*
X141647666Y-117766666D02*
X141681000Y-117800000D01*
X141681000Y-117800000D02*
X141714333Y-117866666D01*
X141714333Y-117866666D02*
X141714333Y-118000000D01*
X141714333Y-118000000D02*
X141681000Y-118066666D01*
X141681000Y-118066666D02*
X141647666Y-118100000D01*
X141647666Y-118100000D02*
X141581000Y-118133333D01*
X141581000Y-118133333D02*
X141447666Y-118133333D01*
X141447666Y-118133333D02*
X141381000Y-118100000D01*
X141381000Y-118100000D02*
X141347666Y-118066666D01*
X141347666Y-118066666D02*
X141314333Y-118000000D01*
X115814333Y-101766666D02*
X116514333Y-102000000D01*
X116514333Y-102000000D02*
X115814333Y-102233333D01*
X116514333Y-102466666D02*
X115814333Y-102466666D01*
X116514333Y-102799999D02*
X115814333Y-102799999D01*
X115814333Y-102799999D02*
X116514333Y-103199999D01*
X116514333Y-103199999D02*
X115814333Y-103199999D01*
X164533333Y-114452333D02*
X164466666Y-114485666D01*
X164466666Y-114485666D02*
X164366666Y-114485666D01*
X164366666Y-114485666D02*
X164266666Y-114452333D01*
X164266666Y-114452333D02*
X164200000Y-114385666D01*
X164200000Y-114385666D02*
X164166666Y-114319000D01*
X164166666Y-114319000D02*
X164133333Y-114185666D01*
X164133333Y-114185666D02*
X164133333Y-114085666D01*
X164133333Y-114085666D02*
X164166666Y-113952333D01*
X164166666Y-113952333D02*
X164200000Y-113885666D01*
X164200000Y-113885666D02*
X164266666Y-113819000D01*
X164266666Y-113819000D02*
X164366666Y-113785666D01*
X164366666Y-113785666D02*
X164433333Y-113785666D01*
X164433333Y-113785666D02*
X164533333Y-113819000D01*
X164533333Y-113819000D02*
X164566666Y-113852333D01*
X164566666Y-113852333D02*
X164566666Y-114085666D01*
X164566666Y-114085666D02*
X164433333Y-114085666D01*
X164866666Y-113785666D02*
X164866666Y-114485666D01*
X164866666Y-114485666D02*
X165266666Y-113785666D01*
X165266666Y-113785666D02*
X165266666Y-114485666D01*
X165599999Y-113785666D02*
X165599999Y-114485666D01*
X165599999Y-114485666D02*
X165766666Y-114485666D01*
X165766666Y-114485666D02*
X165866666Y-114452333D01*
X165866666Y-114452333D02*
X165933333Y-114385666D01*
X165933333Y-114385666D02*
X165966666Y-114319000D01*
X165966666Y-114319000D02*
X165999999Y-114185666D01*
X165999999Y-114185666D02*
X165999999Y-114085666D01*
X165999999Y-114085666D02*
X165966666Y-113952333D01*
X165966666Y-113952333D02*
X165933333Y-113885666D01*
X165933333Y-113885666D02*
X165866666Y-113819000D01*
X165866666Y-113819000D02*
X165766666Y-113785666D01*
X165766666Y-113785666D02*
X165599999Y-113785666D01*
X151214333Y-102066666D02*
X150514333Y-102066666D01*
X150514333Y-102066666D02*
X150514333Y-102233333D01*
X150514333Y-102233333D02*
X150547666Y-102333333D01*
X150547666Y-102333333D02*
X150614333Y-102400000D01*
X150614333Y-102400000D02*
X150681000Y-102433333D01*
X150681000Y-102433333D02*
X150814333Y-102466666D01*
X150814333Y-102466666D02*
X150914333Y-102466666D01*
X150914333Y-102466666D02*
X151047666Y-102433333D01*
X151047666Y-102433333D02*
X151114333Y-102400000D01*
X151114333Y-102400000D02*
X151181000Y-102333333D01*
X151181000Y-102333333D02*
X151214333Y-102233333D01*
X151214333Y-102233333D02*
X151214333Y-102066666D01*
X151214333Y-103133333D02*
X151214333Y-102733333D01*
X151214333Y-102933333D02*
X150514333Y-102933333D01*
X150514333Y-102933333D02*
X150614333Y-102866666D01*
X150614333Y-102866666D02*
X150681000Y-102800000D01*
X150681000Y-102800000D02*
X150714333Y-102733333D01*
X150514333Y-103366667D02*
X150514333Y-103800000D01*
X150514333Y-103800000D02*
X150781000Y-103566667D01*
X150781000Y-103566667D02*
X150781000Y-103666667D01*
X150781000Y-103666667D02*
X150814333Y-103733333D01*
X150814333Y-103733333D02*
X150847666Y-103766667D01*
X150847666Y-103766667D02*
X150914333Y-103800000D01*
X150914333Y-103800000D02*
X151081000Y-103800000D01*
X151081000Y-103800000D02*
X151147666Y-103766667D01*
X151147666Y-103766667D02*
X151181000Y-103733333D01*
X151181000Y-103733333D02*
X151214333Y-103666667D01*
X151214333Y-103666667D02*
X151214333Y-103466667D01*
X151214333Y-103466667D02*
X151181000Y-103400000D01*
X151181000Y-103400000D02*
X151147666Y-103366667D01*
X118514333Y-123400000D02*
X118514333Y-123066666D01*
X118514333Y-123066666D02*
X117814333Y-123066666D01*
X118514333Y-123633333D02*
X117814333Y-123633333D01*
X118147666Y-123633333D02*
X118147666Y-124033333D01*
X118514333Y-124033333D02*
X117814333Y-124033333D01*
X118314333Y-124333333D02*
X118314333Y-124666666D01*
X118514333Y-124266666D02*
X117814333Y-124500000D01*
X117814333Y-124500000D02*
X118514333Y-124733333D01*
X159666666Y-117185666D02*
X159900000Y-116485666D01*
X159900000Y-116485666D02*
X160133333Y-117185666D01*
X160366666Y-116752333D02*
X160900000Y-116752333D01*
X160633333Y-116485666D02*
X160633333Y-117019000D01*
X123247666Y-113133333D02*
X123214333Y-113066666D01*
X123214333Y-113066666D02*
X123214333Y-112966666D01*
X123214333Y-112966666D02*
X123247666Y-112866666D01*
X123247666Y-112866666D02*
X123314333Y-112800000D01*
X123314333Y-112800000D02*
X123381000Y-112766666D01*
X123381000Y-112766666D02*
X123514333Y-112733333D01*
X123514333Y-112733333D02*
X123614333Y-112733333D01*
X123614333Y-112733333D02*
X123747666Y-112766666D01*
X123747666Y-112766666D02*
X123814333Y-112800000D01*
X123814333Y-112800000D02*
X123881000Y-112866666D01*
X123881000Y-112866666D02*
X123914333Y-112966666D01*
X123914333Y-112966666D02*
X123914333Y-113033333D01*
X123914333Y-113033333D02*
X123881000Y-113133333D01*
X123881000Y-113133333D02*
X123847666Y-113166666D01*
X123847666Y-113166666D02*
X123614333Y-113166666D01*
X123614333Y-113166666D02*
X123614333Y-113033333D01*
X123914333Y-113466666D02*
X123214333Y-113466666D01*
X123214333Y-113466666D02*
X123914333Y-113866666D01*
X123914333Y-113866666D02*
X123214333Y-113866666D01*
X123914333Y-114199999D02*
X123214333Y-114199999D01*
X123214333Y-114199999D02*
X123214333Y-114366666D01*
X123214333Y-114366666D02*
X123247666Y-114466666D01*
X123247666Y-114466666D02*
X123314333Y-114533333D01*
X123314333Y-114533333D02*
X123381000Y-114566666D01*
X123381000Y-114566666D02*
X123514333Y-114599999D01*
X123514333Y-114599999D02*
X123614333Y-114599999D01*
X123614333Y-114599999D02*
X123747666Y-114566666D01*
X123747666Y-114566666D02*
X123814333Y-114533333D01*
X123814333Y-114533333D02*
X123881000Y-114466666D01*
X123881000Y-114466666D02*
X123914333Y-114366666D01*
X123914333Y-114366666D02*
X123914333Y-114199999D01*
X139014333Y-101833333D02*
X139014333Y-102166666D01*
X139214333Y-101766666D02*
X138514333Y-102000000D01*
X138514333Y-102000000D02*
X139214333Y-102233333D01*
X138581000Y-102433333D02*
X138547666Y-102466666D01*
X138547666Y-102466666D02*
X138514333Y-102533333D01*
X138514333Y-102533333D02*
X138514333Y-102700000D01*
X138514333Y-102700000D02*
X138547666Y-102766666D01*
X138547666Y-102766666D02*
X138581000Y-102800000D01*
X138581000Y-102800000D02*
X138647666Y-102833333D01*
X138647666Y-102833333D02*
X138714333Y-102833333D01*
X138714333Y-102833333D02*
X138814333Y-102800000D01*
X138814333Y-102800000D02*
X139214333Y-102400000D01*
X139214333Y-102400000D02*
X139214333Y-102833333D01*
X122814333Y-123100000D02*
X122814333Y-123533333D01*
X122814333Y-123533333D02*
X123081000Y-123300000D01*
X123081000Y-123300000D02*
X123081000Y-123400000D01*
X123081000Y-123400000D02*
X123114333Y-123466666D01*
X123114333Y-123466666D02*
X123147666Y-123500000D01*
X123147666Y-123500000D02*
X123214333Y-123533333D01*
X123214333Y-123533333D02*
X123381000Y-123533333D01*
X123381000Y-123533333D02*
X123447666Y-123500000D01*
X123447666Y-123500000D02*
X123481000Y-123466666D01*
X123481000Y-123466666D02*
X123514333Y-123400000D01*
X123514333Y-123400000D02*
X123514333Y-123200000D01*
X123514333Y-123200000D02*
X123481000Y-123133333D01*
X123481000Y-123133333D02*
X123447666Y-123100000D01*
X123047666Y-123766667D02*
X123514333Y-123933333D01*
X123514333Y-123933333D02*
X123047666Y-124100000D01*
X122814333Y-124300000D02*
X122814333Y-124733333D01*
X122814333Y-124733333D02*
X123081000Y-124500000D01*
X123081000Y-124500000D02*
X123081000Y-124600000D01*
X123081000Y-124600000D02*
X123114333Y-124666666D01*
X123114333Y-124666666D02*
X123147666Y-124700000D01*
X123147666Y-124700000D02*
X123214333Y-124733333D01*
X123214333Y-124733333D02*
X123381000Y-124733333D01*
X123381000Y-124733333D02*
X123447666Y-124700000D01*
X123447666Y-124700000D02*
X123481000Y-124666666D01*
X123481000Y-124666666D02*
X123514333Y-124600000D01*
X123514333Y-124600000D02*
X123514333Y-124400000D01*
X123514333Y-124400000D02*
X123481000Y-124333333D01*
X123481000Y-124333333D02*
X123447666Y-124300000D01*
X115147666Y-123433333D02*
X115114333Y-123366666D01*
X115114333Y-123366666D02*
X115114333Y-123266666D01*
X115114333Y-123266666D02*
X115147666Y-123166666D01*
X115147666Y-123166666D02*
X115214333Y-123100000D01*
X115214333Y-123100000D02*
X115281000Y-123066666D01*
X115281000Y-123066666D02*
X115414333Y-123033333D01*
X115414333Y-123033333D02*
X115514333Y-123033333D01*
X115514333Y-123033333D02*
X115647666Y-123066666D01*
X115647666Y-123066666D02*
X115714333Y-123100000D01*
X115714333Y-123100000D02*
X115781000Y-123166666D01*
X115781000Y-123166666D02*
X115814333Y-123266666D01*
X115814333Y-123266666D02*
X115814333Y-123333333D01*
X115814333Y-123333333D02*
X115781000Y-123433333D01*
X115781000Y-123433333D02*
X115747666Y-123466666D01*
X115747666Y-123466666D02*
X115514333Y-123466666D01*
X115514333Y-123466666D02*
X115514333Y-123333333D01*
X115814333Y-123766666D02*
X115114333Y-123766666D01*
X115114333Y-123766666D02*
X115814333Y-124166666D01*
X115814333Y-124166666D02*
X115114333Y-124166666D01*
X115814333Y-124499999D02*
X115114333Y-124499999D01*
X115114333Y-124499999D02*
X115114333Y-124666666D01*
X115114333Y-124666666D02*
X115147666Y-124766666D01*
X115147666Y-124766666D02*
X115214333Y-124833333D01*
X115214333Y-124833333D02*
X115281000Y-124866666D01*
X115281000Y-124866666D02*
X115414333Y-124899999D01*
X115414333Y-124899999D02*
X115514333Y-124899999D01*
X115514333Y-124899999D02*
X115647666Y-124866666D01*
X115647666Y-124866666D02*
X115714333Y-124833333D01*
X115714333Y-124833333D02*
X115781000Y-124766666D01*
X115781000Y-124766666D02*
X115814333Y-124666666D01*
X115814333Y-124666666D02*
X115814333Y-124499999D01*
X131514333Y-113466666D02*
X130814333Y-113466666D01*
X130814333Y-113466666D02*
X130814333Y-113633333D01*
X130814333Y-113633333D02*
X130847666Y-113733333D01*
X130847666Y-113733333D02*
X130914333Y-113800000D01*
X130914333Y-113800000D02*
X130981000Y-113833333D01*
X130981000Y-113833333D02*
X131114333Y-113866666D01*
X131114333Y-113866666D02*
X131214333Y-113866666D01*
X131214333Y-113866666D02*
X131347666Y-113833333D01*
X131347666Y-113833333D02*
X131414333Y-113800000D01*
X131414333Y-113800000D02*
X131481000Y-113733333D01*
X131481000Y-113733333D02*
X131514333Y-113633333D01*
X131514333Y-113633333D02*
X131514333Y-113466666D01*
X131047666Y-114466666D02*
X131514333Y-114466666D01*
X130781000Y-114300000D02*
X131281000Y-114133333D01*
X131281000Y-114133333D02*
X131281000Y-114566666D01*
X119014333Y-113366666D02*
X118314333Y-113366666D01*
X118314333Y-113366666D02*
X118314333Y-113533333D01*
X118314333Y-113533333D02*
X118347666Y-113633333D01*
X118347666Y-113633333D02*
X118414333Y-113700000D01*
X118414333Y-113700000D02*
X118481000Y-113733333D01*
X118481000Y-113733333D02*
X118614333Y-113766666D01*
X118614333Y-113766666D02*
X118714333Y-113766666D01*
X118714333Y-113766666D02*
X118847666Y-113733333D01*
X118847666Y-113733333D02*
X118914333Y-113700000D01*
X118914333Y-113700000D02*
X118981000Y-113633333D01*
X118981000Y-113633333D02*
X119014333Y-113533333D01*
X119014333Y-113533333D02*
X119014333Y-113366666D01*
X118314333Y-114200000D02*
X118314333Y-114266666D01*
X118314333Y-114266666D02*
X118347666Y-114333333D01*
X118347666Y-114333333D02*
X118381000Y-114366666D01*
X118381000Y-114366666D02*
X118447666Y-114400000D01*
X118447666Y-114400000D02*
X118581000Y-114433333D01*
X118581000Y-114433333D02*
X118747666Y-114433333D01*
X118747666Y-114433333D02*
X118881000Y-114400000D01*
X118881000Y-114400000D02*
X118947666Y-114366666D01*
X118947666Y-114366666D02*
X118981000Y-114333333D01*
X118981000Y-114333333D02*
X119014333Y-114266666D01*
X119014333Y-114266666D02*
X119014333Y-114200000D01*
X119014333Y-114200000D02*
X118981000Y-114133333D01*
X118981000Y-114133333D02*
X118947666Y-114100000D01*
X118947666Y-114100000D02*
X118881000Y-114066666D01*
X118881000Y-114066666D02*
X118747666Y-114033333D01*
X118747666Y-114033333D02*
X118581000Y-114033333D01*
X118581000Y-114033333D02*
X118447666Y-114066666D01*
X118447666Y-114066666D02*
X118381000Y-114100000D01*
X118381000Y-114100000D02*
X118347666Y-114133333D01*
X118347666Y-114133333D02*
X118314333Y-114200000D01*
X146514333Y-97433333D02*
X146514333Y-97766666D01*
X146714333Y-97366666D02*
X146014333Y-97600000D01*
X146014333Y-97600000D02*
X146714333Y-97833333D01*
X146714333Y-98466666D02*
X146381000Y-98233333D01*
X146714333Y-98066666D02*
X146014333Y-98066666D01*
X146014333Y-98066666D02*
X146014333Y-98333333D01*
X146014333Y-98333333D02*
X146047666Y-98400000D01*
X146047666Y-98400000D02*
X146081000Y-98433333D01*
X146081000Y-98433333D02*
X146147666Y-98466666D01*
X146147666Y-98466666D02*
X146247666Y-98466666D01*
X146247666Y-98466666D02*
X146314333Y-98433333D01*
X146314333Y-98433333D02*
X146347666Y-98400000D01*
X146347666Y-98400000D02*
X146381000Y-98333333D01*
X146381000Y-98333333D02*
X146381000Y-98066666D01*
X146347666Y-98766666D02*
X146347666Y-99000000D01*
X146714333Y-99100000D02*
X146714333Y-98766666D01*
X146714333Y-98766666D02*
X146014333Y-98766666D01*
X146014333Y-98766666D02*
X146014333Y-99100000D01*
X146347666Y-99633333D02*
X146347666Y-99399999D01*
X146714333Y-99399999D02*
X146014333Y-99399999D01*
X146014333Y-99399999D02*
X146014333Y-99733333D01*
X121414333Y-112666666D02*
X120714333Y-112666666D01*
X120714333Y-112666666D02*
X121414333Y-113066666D01*
X121414333Y-113066666D02*
X120714333Y-113066666D01*
X121414333Y-113799999D02*
X121081000Y-113566666D01*
X121414333Y-113399999D02*
X120714333Y-113399999D01*
X120714333Y-113399999D02*
X120714333Y-113666666D01*
X120714333Y-113666666D02*
X120747666Y-113733333D01*
X120747666Y-113733333D02*
X120781000Y-113766666D01*
X120781000Y-113766666D02*
X120847666Y-113799999D01*
X120847666Y-113799999D02*
X120947666Y-113799999D01*
X120947666Y-113799999D02*
X121014333Y-113766666D01*
X121014333Y-113766666D02*
X121047666Y-113733333D01*
X121047666Y-113733333D02*
X121081000Y-113666666D01*
X121081000Y-113666666D02*
X121081000Y-113399999D01*
X121381000Y-114066666D02*
X121414333Y-114166666D01*
X121414333Y-114166666D02*
X121414333Y-114333333D01*
X121414333Y-114333333D02*
X121381000Y-114399999D01*
X121381000Y-114399999D02*
X121347666Y-114433333D01*
X121347666Y-114433333D02*
X121281000Y-114466666D01*
X121281000Y-114466666D02*
X121214333Y-114466666D01*
X121214333Y-114466666D02*
X121147666Y-114433333D01*
X121147666Y-114433333D02*
X121114333Y-114399999D01*
X121114333Y-114399999D02*
X121081000Y-114333333D01*
X121081000Y-114333333D02*
X121047666Y-114199999D01*
X121047666Y-114199999D02*
X121014333Y-114133333D01*
X121014333Y-114133333D02*
X120981000Y-114099999D01*
X120981000Y-114099999D02*
X120914333Y-114066666D01*
X120914333Y-114066666D02*
X120847666Y-114066666D01*
X120847666Y-114066666D02*
X120781000Y-114099999D01*
X120781000Y-114099999D02*
X120747666Y-114133333D01*
X120747666Y-114133333D02*
X120714333Y-114199999D01*
X120714333Y-114199999D02*
X120714333Y-114366666D01*
X120714333Y-114366666D02*
X120747666Y-114466666D01*
X120714333Y-114666666D02*
X120714333Y-115066666D01*
X121414333Y-114866666D02*
X120714333Y-114866666D01*
X152914333Y-123000000D02*
X152914333Y-123433333D01*
X152914333Y-123433333D02*
X153181000Y-123200000D01*
X153181000Y-123200000D02*
X153181000Y-123300000D01*
X153181000Y-123300000D02*
X153214333Y-123366666D01*
X153214333Y-123366666D02*
X153247666Y-123400000D01*
X153247666Y-123400000D02*
X153314333Y-123433333D01*
X153314333Y-123433333D02*
X153481000Y-123433333D01*
X153481000Y-123433333D02*
X153547666Y-123400000D01*
X153547666Y-123400000D02*
X153581000Y-123366666D01*
X153581000Y-123366666D02*
X153614333Y-123300000D01*
X153614333Y-123300000D02*
X153614333Y-123100000D01*
X153614333Y-123100000D02*
X153581000Y-123033333D01*
X153581000Y-123033333D02*
X153547666Y-123000000D01*
X153147666Y-123666667D02*
X153614333Y-123833333D01*
X153614333Y-123833333D02*
X153147666Y-124000000D01*
X152914333Y-124200000D02*
X152914333Y-124633333D01*
X152914333Y-124633333D02*
X153181000Y-124400000D01*
X153181000Y-124400000D02*
X153181000Y-124500000D01*
X153181000Y-124500000D02*
X153214333Y-124566666D01*
X153214333Y-124566666D02*
X153247666Y-124600000D01*
X153247666Y-124600000D02*
X153314333Y-124633333D01*
X153314333Y-124633333D02*
X153481000Y-124633333D01*
X153481000Y-124633333D02*
X153547666Y-124600000D01*
X153547666Y-124600000D02*
X153581000Y-124566666D01*
X153581000Y-124566666D02*
X153614333Y-124500000D01*
X153614333Y-124500000D02*
X153614333Y-124300000D01*
X153614333Y-124300000D02*
X153581000Y-124233333D01*
X153581000Y-124233333D02*
X153547666Y-124200000D01*
X116314333Y-113366666D02*
X115614333Y-113366666D01*
X115614333Y-113366666D02*
X115614333Y-113533333D01*
X115614333Y-113533333D02*
X115647666Y-113633333D01*
X115647666Y-113633333D02*
X115714333Y-113700000D01*
X115714333Y-113700000D02*
X115781000Y-113733333D01*
X115781000Y-113733333D02*
X115914333Y-113766666D01*
X115914333Y-113766666D02*
X116014333Y-113766666D01*
X116014333Y-113766666D02*
X116147666Y-113733333D01*
X116147666Y-113733333D02*
X116214333Y-113700000D01*
X116214333Y-113700000D02*
X116281000Y-113633333D01*
X116281000Y-113633333D02*
X116314333Y-113533333D01*
X116314333Y-113533333D02*
X116314333Y-113366666D01*
X116314333Y-114433333D02*
X116314333Y-114033333D01*
X116314333Y-114233333D02*
X115614333Y-114233333D01*
X115614333Y-114233333D02*
X115714333Y-114166666D01*
X115714333Y-114166666D02*
X115781000Y-114100000D01*
X115781000Y-114100000D02*
X115814333Y-114033333D01*
X151814333Y-117366666D02*
X151114333Y-117366666D01*
X151114333Y-117366666D02*
X151114333Y-117533333D01*
X151114333Y-117533333D02*
X151147666Y-117633333D01*
X151147666Y-117633333D02*
X151214333Y-117700000D01*
X151214333Y-117700000D02*
X151281000Y-117733333D01*
X151281000Y-117733333D02*
X151414333Y-117766666D01*
X151414333Y-117766666D02*
X151514333Y-117766666D01*
X151514333Y-117766666D02*
X151647666Y-117733333D01*
X151647666Y-117733333D02*
X151714333Y-117700000D01*
X151714333Y-117700000D02*
X151781000Y-117633333D01*
X151781000Y-117633333D02*
X151814333Y-117533333D01*
X151814333Y-117533333D02*
X151814333Y-117366666D01*
X151814333Y-118433333D02*
X151814333Y-118033333D01*
X151814333Y-118233333D02*
X151114333Y-118233333D01*
X151114333Y-118233333D02*
X151214333Y-118166666D01*
X151214333Y-118166666D02*
X151281000Y-118100000D01*
X151281000Y-118100000D02*
X151314333Y-118033333D01*
X151181000Y-118700000D02*
X151147666Y-118733333D01*
X151147666Y-118733333D02*
X151114333Y-118800000D01*
X151114333Y-118800000D02*
X151114333Y-118966667D01*
X151114333Y-118966667D02*
X151147666Y-119033333D01*
X151147666Y-119033333D02*
X151181000Y-119066667D01*
X151181000Y-119066667D02*
X151247666Y-119100000D01*
X151247666Y-119100000D02*
X151314333Y-119100000D01*
X151314333Y-119100000D02*
X151414333Y-119066667D01*
X151414333Y-119066667D02*
X151814333Y-118666667D01*
X151814333Y-118666667D02*
X151814333Y-119100000D01*
X126214333Y-101833333D02*
X126214333Y-102166666D01*
X126414333Y-101766666D02*
X125714333Y-102000000D01*
X125714333Y-102000000D02*
X126414333Y-102233333D01*
X125714333Y-102400000D02*
X125714333Y-102866666D01*
X125714333Y-102866666D02*
X126414333Y-102566666D01*
X148314333Y-101900000D02*
X148314333Y-102333333D01*
X148314333Y-102333333D02*
X148581000Y-102100000D01*
X148581000Y-102100000D02*
X148581000Y-102200000D01*
X148581000Y-102200000D02*
X148614333Y-102266666D01*
X148614333Y-102266666D02*
X148647666Y-102300000D01*
X148647666Y-102300000D02*
X148714333Y-102333333D01*
X148714333Y-102333333D02*
X148881000Y-102333333D01*
X148881000Y-102333333D02*
X148947666Y-102300000D01*
X148947666Y-102300000D02*
X148981000Y-102266666D01*
X148981000Y-102266666D02*
X149014333Y-102200000D01*
X149014333Y-102200000D02*
X149014333Y-102000000D01*
X149014333Y-102000000D02*
X148981000Y-101933333D01*
X148981000Y-101933333D02*
X148947666Y-101900000D01*
X148547666Y-102566667D02*
X149014333Y-102733333D01*
X149014333Y-102733333D02*
X148547666Y-102900000D01*
X148314333Y-103100000D02*
X148314333Y-103533333D01*
X148314333Y-103533333D02*
X148581000Y-103300000D01*
X148581000Y-103300000D02*
X148581000Y-103400000D01*
X148581000Y-103400000D02*
X148614333Y-103466666D01*
X148614333Y-103466666D02*
X148647666Y-103500000D01*
X148647666Y-103500000D02*
X148714333Y-103533333D01*
X148714333Y-103533333D02*
X148881000Y-103533333D01*
X148881000Y-103533333D02*
X148947666Y-103500000D01*
X148947666Y-103500000D02*
X148981000Y-103466666D01*
X148981000Y-103466666D02*
X149014333Y-103400000D01*
X149014333Y-103400000D02*
X149014333Y-103200000D01*
X149014333Y-103200000D02*
X148981000Y-103133333D01*
X148981000Y-103133333D02*
X148947666Y-103100000D01*
X136714333Y-113566666D02*
X136014333Y-113566666D01*
X136014333Y-113566666D02*
X136014333Y-113733333D01*
X136014333Y-113733333D02*
X136047666Y-113833333D01*
X136047666Y-113833333D02*
X136114333Y-113900000D01*
X136114333Y-113900000D02*
X136181000Y-113933333D01*
X136181000Y-113933333D02*
X136314333Y-113966666D01*
X136314333Y-113966666D02*
X136414333Y-113966666D01*
X136414333Y-113966666D02*
X136547666Y-113933333D01*
X136547666Y-113933333D02*
X136614333Y-113900000D01*
X136614333Y-113900000D02*
X136681000Y-113833333D01*
X136681000Y-113833333D02*
X136714333Y-113733333D01*
X136714333Y-113733333D02*
X136714333Y-113566666D01*
X136014333Y-114566666D02*
X136014333Y-114433333D01*
X136014333Y-114433333D02*
X136047666Y-114366666D01*
X136047666Y-114366666D02*
X136081000Y-114333333D01*
X136081000Y-114333333D02*
X136181000Y-114266666D01*
X136181000Y-114266666D02*
X136314333Y-114233333D01*
X136314333Y-114233333D02*
X136581000Y-114233333D01*
X136581000Y-114233333D02*
X136647666Y-114266666D01*
X136647666Y-114266666D02*
X136681000Y-114300000D01*
X136681000Y-114300000D02*
X136714333Y-114366666D01*
X136714333Y-114366666D02*
X136714333Y-114500000D01*
X136714333Y-114500000D02*
X136681000Y-114566666D01*
X136681000Y-114566666D02*
X136647666Y-114600000D01*
X136647666Y-114600000D02*
X136581000Y-114633333D01*
X136581000Y-114633333D02*
X136414333Y-114633333D01*
X136414333Y-114633333D02*
X136347666Y-114600000D01*
X136347666Y-114600000D02*
X136314333Y-114566666D01*
X136314333Y-114566666D02*
X136281000Y-114500000D01*
X136281000Y-114500000D02*
X136281000Y-114366666D01*
X136281000Y-114366666D02*
X136314333Y-114300000D01*
X136314333Y-114300000D02*
X136347666Y-114266666D01*
X136347666Y-114266666D02*
X136414333Y-114233333D01*
X136514333Y-101833333D02*
X136514333Y-102166666D01*
X136714333Y-101766666D02*
X136014333Y-102000000D01*
X136014333Y-102000000D02*
X136714333Y-102233333D01*
X136014333Y-102400000D02*
X136014333Y-102833333D01*
X136014333Y-102833333D02*
X136281000Y-102600000D01*
X136281000Y-102600000D02*
X136281000Y-102700000D01*
X136281000Y-102700000D02*
X136314333Y-102766666D01*
X136314333Y-102766666D02*
X136347666Y-102800000D01*
X136347666Y-102800000D02*
X136414333Y-102833333D01*
X136414333Y-102833333D02*
X136581000Y-102833333D01*
X136581000Y-102833333D02*
X136647666Y-102800000D01*
X136647666Y-102800000D02*
X136681000Y-102766666D01*
X136681000Y-102766666D02*
X136714333Y-102700000D01*
X136714333Y-102700000D02*
X136714333Y-102500000D01*
X136714333Y-102500000D02*
X136681000Y-102433333D01*
X136681000Y-102433333D02*
X136647666Y-102400000D01*
X144114333Y-97433333D02*
X144114333Y-97766666D01*
X144314333Y-97366666D02*
X143614333Y-97600000D01*
X143614333Y-97600000D02*
X144314333Y-97833333D01*
X143614333Y-98200000D02*
X143614333Y-98266666D01*
X143614333Y-98266666D02*
X143647666Y-98333333D01*
X143647666Y-98333333D02*
X143681000Y-98366666D01*
X143681000Y-98366666D02*
X143747666Y-98400000D01*
X143747666Y-98400000D02*
X143881000Y-98433333D01*
X143881000Y-98433333D02*
X144047666Y-98433333D01*
X144047666Y-98433333D02*
X144181000Y-98400000D01*
X144181000Y-98400000D02*
X144247666Y-98366666D01*
X144247666Y-98366666D02*
X144281000Y-98333333D01*
X144281000Y-98333333D02*
X144314333Y-98266666D01*
X144314333Y-98266666D02*
X144314333Y-98200000D01*
X144314333Y-98200000D02*
X144281000Y-98133333D01*
X144281000Y-98133333D02*
X144247666Y-98100000D01*
X144247666Y-98100000D02*
X144181000Y-98066666D01*
X144181000Y-98066666D02*
X144047666Y-98033333D01*
X144047666Y-98033333D02*
X143881000Y-98033333D01*
X143881000Y-98033333D02*
X143747666Y-98066666D01*
X143747666Y-98066666D02*
X143681000Y-98100000D01*
X143681000Y-98100000D02*
X143647666Y-98133333D01*
X143647666Y-98133333D02*
X143614333Y-98200000D01*
X139214333Y-113566666D02*
X138514333Y-113566666D01*
X138514333Y-113566666D02*
X138514333Y-113733333D01*
X138514333Y-113733333D02*
X138547666Y-113833333D01*
X138547666Y-113833333D02*
X138614333Y-113900000D01*
X138614333Y-113900000D02*
X138681000Y-113933333D01*
X138681000Y-113933333D02*
X138814333Y-113966666D01*
X138814333Y-113966666D02*
X138914333Y-113966666D01*
X138914333Y-113966666D02*
X139047666Y-113933333D01*
X139047666Y-113933333D02*
X139114333Y-113900000D01*
X139114333Y-113900000D02*
X139181000Y-113833333D01*
X139181000Y-113833333D02*
X139214333Y-113733333D01*
X139214333Y-113733333D02*
X139214333Y-113566666D01*
X138514333Y-114200000D02*
X138514333Y-114666666D01*
X138514333Y-114666666D02*
X139214333Y-114366666D01*
X126514333Y-113466666D02*
X125814333Y-113466666D01*
X125814333Y-113466666D02*
X125814333Y-113633333D01*
X125814333Y-113633333D02*
X125847666Y-113733333D01*
X125847666Y-113733333D02*
X125914333Y-113800000D01*
X125914333Y-113800000D02*
X125981000Y-113833333D01*
X125981000Y-113833333D02*
X126114333Y-113866666D01*
X126114333Y-113866666D02*
X126214333Y-113866666D01*
X126214333Y-113866666D02*
X126347666Y-113833333D01*
X126347666Y-113833333D02*
X126414333Y-113800000D01*
X126414333Y-113800000D02*
X126481000Y-113733333D01*
X126481000Y-113733333D02*
X126514333Y-113633333D01*
X126514333Y-113633333D02*
X126514333Y-113466666D01*
X125881000Y-114133333D02*
X125847666Y-114166666D01*
X125847666Y-114166666D02*
X125814333Y-114233333D01*
X125814333Y-114233333D02*
X125814333Y-114400000D01*
X125814333Y-114400000D02*
X125847666Y-114466666D01*
X125847666Y-114466666D02*
X125881000Y-114500000D01*
X125881000Y-114500000D02*
X125947666Y-114533333D01*
X125947666Y-114533333D02*
X126014333Y-114533333D01*
X126014333Y-114533333D02*
X126114333Y-114500000D01*
X126114333Y-114500000D02*
X126514333Y-114100000D01*
X126514333Y-114100000D02*
X126514333Y-114533333D01*
X121414333Y-101866666D02*
X120714333Y-101866666D01*
X120714333Y-101866666D02*
X121414333Y-102266666D01*
X121414333Y-102266666D02*
X120714333Y-102266666D01*
X121414333Y-102999999D02*
X121081000Y-102766666D01*
X121414333Y-102599999D02*
X120714333Y-102599999D01*
X120714333Y-102599999D02*
X120714333Y-102866666D01*
X120714333Y-102866666D02*
X120747666Y-102933333D01*
X120747666Y-102933333D02*
X120781000Y-102966666D01*
X120781000Y-102966666D02*
X120847666Y-102999999D01*
X120847666Y-102999999D02*
X120947666Y-102999999D01*
X120947666Y-102999999D02*
X121014333Y-102966666D01*
X121014333Y-102966666D02*
X121047666Y-102933333D01*
X121047666Y-102933333D02*
X121081000Y-102866666D01*
X121081000Y-102866666D02*
X121081000Y-102599999D01*
X121381000Y-103266666D02*
X121414333Y-103366666D01*
X121414333Y-103366666D02*
X121414333Y-103533333D01*
X121414333Y-103533333D02*
X121381000Y-103599999D01*
X121381000Y-103599999D02*
X121347666Y-103633333D01*
X121347666Y-103633333D02*
X121281000Y-103666666D01*
X121281000Y-103666666D02*
X121214333Y-103666666D01*
X121214333Y-103666666D02*
X121147666Y-103633333D01*
X121147666Y-103633333D02*
X121114333Y-103599999D01*
X121114333Y-103599999D02*
X121081000Y-103533333D01*
X121081000Y-103533333D02*
X121047666Y-103399999D01*
X121047666Y-103399999D02*
X121014333Y-103333333D01*
X121014333Y-103333333D02*
X120981000Y-103299999D01*
X120981000Y-103299999D02*
X120914333Y-103266666D01*
X120914333Y-103266666D02*
X120847666Y-103266666D01*
X120847666Y-103266666D02*
X120781000Y-103299999D01*
X120781000Y-103299999D02*
X120747666Y-103333333D01*
X120747666Y-103333333D02*
X120714333Y-103399999D01*
X120714333Y-103399999D02*
X120714333Y-103566666D01*
X120714333Y-103566666D02*
X120747666Y-103666666D01*
X120714333Y-103866666D02*
X120714333Y-104266666D01*
X121414333Y-104066666D02*
X120714333Y-104066666D01*
X123414333Y-102300000D02*
X123414333Y-101966666D01*
X123414333Y-101966666D02*
X123747666Y-101933333D01*
X123747666Y-101933333D02*
X123714333Y-101966666D01*
X123714333Y-101966666D02*
X123681000Y-102033333D01*
X123681000Y-102033333D02*
X123681000Y-102200000D01*
X123681000Y-102200000D02*
X123714333Y-102266666D01*
X123714333Y-102266666D02*
X123747666Y-102300000D01*
X123747666Y-102300000D02*
X123814333Y-102333333D01*
X123814333Y-102333333D02*
X123981000Y-102333333D01*
X123981000Y-102333333D02*
X124047666Y-102300000D01*
X124047666Y-102300000D02*
X124081000Y-102266666D01*
X124081000Y-102266666D02*
X124114333Y-102200000D01*
X124114333Y-102200000D02*
X124114333Y-102033333D01*
X124114333Y-102033333D02*
X124081000Y-101966666D01*
X124081000Y-101966666D02*
X124047666Y-101933333D01*
X123414333Y-102533333D02*
X124114333Y-102766667D01*
X124114333Y-102766667D02*
X123414333Y-103000000D01*
X134014333Y-101933333D02*
X134014333Y-102266666D01*
X134214333Y-101866666D02*
X133514333Y-102100000D01*
X133514333Y-102100000D02*
X134214333Y-102333333D01*
X133747666Y-102866666D02*
X134214333Y-102866666D01*
X133481000Y-102700000D02*
X133981000Y-102533333D01*
X133981000Y-102533333D02*
X133981000Y-102966666D01*
X141514333Y-97633333D02*
X141514333Y-97966666D01*
X141714333Y-97566666D02*
X141014333Y-97800000D01*
X141014333Y-97800000D02*
X141714333Y-98033333D01*
X141714333Y-98633333D02*
X141714333Y-98233333D01*
X141714333Y-98433333D02*
X141014333Y-98433333D01*
X141014333Y-98433333D02*
X141114333Y-98366666D01*
X141114333Y-98366666D02*
X141181000Y-98300000D01*
X141181000Y-98300000D02*
X141214333Y-98233333D01*
X155747666Y-123100000D02*
X155781000Y-123200000D01*
X155781000Y-123200000D02*
X155814333Y-123233333D01*
X155814333Y-123233333D02*
X155881000Y-123266666D01*
X155881000Y-123266666D02*
X155981000Y-123266666D01*
X155981000Y-123266666D02*
X156047666Y-123233333D01*
X156047666Y-123233333D02*
X156081000Y-123200000D01*
X156081000Y-123200000D02*
X156114333Y-123133333D01*
X156114333Y-123133333D02*
X156114333Y-122866666D01*
X156114333Y-122866666D02*
X155414333Y-122866666D01*
X155414333Y-122866666D02*
X155414333Y-123100000D01*
X155414333Y-123100000D02*
X155447666Y-123166666D01*
X155447666Y-123166666D02*
X155481000Y-123200000D01*
X155481000Y-123200000D02*
X155547666Y-123233333D01*
X155547666Y-123233333D02*
X155614333Y-123233333D01*
X155614333Y-123233333D02*
X155681000Y-123200000D01*
X155681000Y-123200000D02*
X155714333Y-123166666D01*
X155714333Y-123166666D02*
X155747666Y-123100000D01*
X155747666Y-123100000D02*
X155747666Y-122866666D01*
X155414333Y-123700000D02*
X155414333Y-123833333D01*
X155414333Y-123833333D02*
X155447666Y-123900000D01*
X155447666Y-123900000D02*
X155514333Y-123966666D01*
X155514333Y-123966666D02*
X155647666Y-124000000D01*
X155647666Y-124000000D02*
X155881000Y-124000000D01*
X155881000Y-124000000D02*
X156014333Y-123966666D01*
X156014333Y-123966666D02*
X156081000Y-123900000D01*
X156081000Y-123900000D02*
X156114333Y-123833333D01*
X156114333Y-123833333D02*
X156114333Y-123700000D01*
X156114333Y-123700000D02*
X156081000Y-123633333D01*
X156081000Y-123633333D02*
X156014333Y-123566666D01*
X156014333Y-123566666D02*
X155881000Y-123533333D01*
X155881000Y-123533333D02*
X155647666Y-123533333D01*
X155647666Y-123533333D02*
X155514333Y-123566666D01*
X155514333Y-123566666D02*
X155447666Y-123633333D01*
X155447666Y-123633333D02*
X155414333Y-123700000D01*
X155481000Y-124266666D02*
X155447666Y-124299999D01*
X155447666Y-124299999D02*
X155414333Y-124366666D01*
X155414333Y-124366666D02*
X155414333Y-124533333D01*
X155414333Y-124533333D02*
X155447666Y-124599999D01*
X155447666Y-124599999D02*
X155481000Y-124633333D01*
X155481000Y-124633333D02*
X155547666Y-124666666D01*
X155547666Y-124666666D02*
X155614333Y-124666666D01*
X155614333Y-124666666D02*
X155714333Y-124633333D01*
X155714333Y-124633333D02*
X156114333Y-124233333D01*
X156114333Y-124233333D02*
X156114333Y-124666666D01*
X131614333Y-102033333D02*
X131614333Y-102366666D01*
X131814333Y-101966666D02*
X131114333Y-102200000D01*
X131114333Y-102200000D02*
X131814333Y-102433333D01*
X131114333Y-103000000D02*
X131114333Y-102666666D01*
X131114333Y-102666666D02*
X131447666Y-102633333D01*
X131447666Y-102633333D02*
X131414333Y-102666666D01*
X131414333Y-102666666D02*
X131381000Y-102733333D01*
X131381000Y-102733333D02*
X131381000Y-102900000D01*
X131381000Y-102900000D02*
X131414333Y-102966666D01*
X131414333Y-102966666D02*
X131447666Y-103000000D01*
X131447666Y-103000000D02*
X131514333Y-103033333D01*
X131514333Y-103033333D02*
X131681000Y-103033333D01*
X131681000Y-103033333D02*
X131747666Y-103000000D01*
X131747666Y-103000000D02*
X131781000Y-102966666D01*
X131781000Y-102966666D02*
X131814333Y-102900000D01*
X131814333Y-102900000D02*
X131814333Y-102733333D01*
X131814333Y-102733333D02*
X131781000Y-102666666D01*
X131781000Y-102666666D02*
X131747666Y-102633333D01*
X125714333Y-123133333D02*
X125714333Y-123466666D01*
X125914333Y-123066666D02*
X125214333Y-123300000D01*
X125214333Y-123300000D02*
X125914333Y-123533333D01*
X125214333Y-123900000D02*
X125214333Y-124033333D01*
X125214333Y-124033333D02*
X125247666Y-124100000D01*
X125247666Y-124100000D02*
X125314333Y-124166666D01*
X125314333Y-124166666D02*
X125447666Y-124200000D01*
X125447666Y-124200000D02*
X125681000Y-124200000D01*
X125681000Y-124200000D02*
X125814333Y-124166666D01*
X125814333Y-124166666D02*
X125881000Y-124100000D01*
X125881000Y-124100000D02*
X125914333Y-124033333D01*
X125914333Y-124033333D02*
X125914333Y-123900000D01*
X125914333Y-123900000D02*
X125881000Y-123833333D01*
X125881000Y-123833333D02*
X125814333Y-123766666D01*
X125814333Y-123766666D02*
X125681000Y-123733333D01*
X125681000Y-123733333D02*
X125447666Y-123733333D01*
X125447666Y-123733333D02*
X125314333Y-123766666D01*
X125314333Y-123766666D02*
X125247666Y-123833333D01*
X125247666Y-123833333D02*
X125214333Y-123900000D01*
X125281000Y-124466666D02*
X125247666Y-124499999D01*
X125247666Y-124499999D02*
X125214333Y-124566666D01*
X125214333Y-124566666D02*
X125214333Y-124733333D01*
X125214333Y-124733333D02*
X125247666Y-124799999D01*
X125247666Y-124799999D02*
X125281000Y-124833333D01*
X125281000Y-124833333D02*
X125347666Y-124866666D01*
X125347666Y-124866666D02*
X125414333Y-124866666D01*
X125414333Y-124866666D02*
X125514333Y-124833333D01*
X125514333Y-124833333D02*
X125914333Y-124433333D01*
X125914333Y-124433333D02*
X125914333Y-124866666D01*
X144214333Y-117166666D02*
X143514333Y-117166666D01*
X143514333Y-117166666D02*
X143514333Y-117333333D01*
X143514333Y-117333333D02*
X143547666Y-117433333D01*
X143547666Y-117433333D02*
X143614333Y-117500000D01*
X143614333Y-117500000D02*
X143681000Y-117533333D01*
X143681000Y-117533333D02*
X143814333Y-117566666D01*
X143814333Y-117566666D02*
X143914333Y-117566666D01*
X143914333Y-117566666D02*
X144047666Y-117533333D01*
X144047666Y-117533333D02*
X144114333Y-117500000D01*
X144114333Y-117500000D02*
X144181000Y-117433333D01*
X144181000Y-117433333D02*
X144214333Y-117333333D01*
X144214333Y-117333333D02*
X144214333Y-117166666D01*
X144214333Y-117900000D02*
X144214333Y-118033333D01*
X144214333Y-118033333D02*
X144181000Y-118100000D01*
X144181000Y-118100000D02*
X144147666Y-118133333D01*
X144147666Y-118133333D02*
X144047666Y-118200000D01*
X144047666Y-118200000D02*
X143914333Y-118233333D01*
X143914333Y-118233333D02*
X143647666Y-118233333D01*
X143647666Y-118233333D02*
X143581000Y-118200000D01*
X143581000Y-118200000D02*
X143547666Y-118166666D01*
X143547666Y-118166666D02*
X143514333Y-118100000D01*
X143514333Y-118100000D02*
X143514333Y-117966666D01*
X143514333Y-117966666D02*
X143547666Y-117900000D01*
X143547666Y-117900000D02*
X143581000Y-117866666D01*
X143581000Y-117866666D02*
X143647666Y-117833333D01*
X143647666Y-117833333D02*
X143814333Y-117833333D01*
X143814333Y-117833333D02*
X143881000Y-117866666D01*
X143881000Y-117866666D02*
X143914333Y-117900000D01*
X143914333Y-117900000D02*
X143947666Y-117966666D01*
X143947666Y-117966666D02*
X143947666Y-118100000D01*
X143947666Y-118100000D02*
X143914333Y-118166666D01*
X143914333Y-118166666D02*
X143881000Y-118200000D01*
X143881000Y-118200000D02*
X143814333Y-118233333D01*
X145247666Y-123433333D02*
X145214333Y-123366666D01*
X145214333Y-123366666D02*
X145214333Y-123266666D01*
X145214333Y-123266666D02*
X145247666Y-123166666D01*
X145247666Y-123166666D02*
X145314333Y-123100000D01*
X145314333Y-123100000D02*
X145381000Y-123066666D01*
X145381000Y-123066666D02*
X145514333Y-123033333D01*
X145514333Y-123033333D02*
X145614333Y-123033333D01*
X145614333Y-123033333D02*
X145747666Y-123066666D01*
X145747666Y-123066666D02*
X145814333Y-123100000D01*
X145814333Y-123100000D02*
X145881000Y-123166666D01*
X145881000Y-123166666D02*
X145914333Y-123266666D01*
X145914333Y-123266666D02*
X145914333Y-123333333D01*
X145914333Y-123333333D02*
X145881000Y-123433333D01*
X145881000Y-123433333D02*
X145847666Y-123466666D01*
X145847666Y-123466666D02*
X145614333Y-123466666D01*
X145614333Y-123466666D02*
X145614333Y-123333333D01*
X145914333Y-123766666D02*
X145214333Y-123766666D01*
X145214333Y-123766666D02*
X145914333Y-124166666D01*
X145914333Y-124166666D02*
X145214333Y-124166666D01*
X145914333Y-124499999D02*
X145214333Y-124499999D01*
X145214333Y-124499999D02*
X145214333Y-124666666D01*
X145214333Y-124666666D02*
X145247666Y-124766666D01*
X145247666Y-124766666D02*
X145314333Y-124833333D01*
X145314333Y-124833333D02*
X145381000Y-124866666D01*
X145381000Y-124866666D02*
X145514333Y-124899999D01*
X145514333Y-124899999D02*
X145614333Y-124899999D01*
X145614333Y-124899999D02*
X145747666Y-124866666D01*
X145747666Y-124866666D02*
X145814333Y-124833333D01*
X145814333Y-124833333D02*
X145881000Y-124766666D01*
X145881000Y-124766666D02*
X145914333Y-124666666D01*
X145914333Y-124666666D02*
X145914333Y-124499999D01*
X146714333Y-117366666D02*
X146014333Y-117366666D01*
X146014333Y-117366666D02*
X146014333Y-117533333D01*
X146014333Y-117533333D02*
X146047666Y-117633333D01*
X146047666Y-117633333D02*
X146114333Y-117700000D01*
X146114333Y-117700000D02*
X146181000Y-117733333D01*
X146181000Y-117733333D02*
X146314333Y-117766666D01*
X146314333Y-117766666D02*
X146414333Y-117766666D01*
X146414333Y-117766666D02*
X146547666Y-117733333D01*
X146547666Y-117733333D02*
X146614333Y-117700000D01*
X146614333Y-117700000D02*
X146681000Y-117633333D01*
X146681000Y-117633333D02*
X146714333Y-117533333D01*
X146714333Y-117533333D02*
X146714333Y-117366666D01*
X146714333Y-118433333D02*
X146714333Y-118033333D01*
X146714333Y-118233333D02*
X146014333Y-118233333D01*
X146014333Y-118233333D02*
X146114333Y-118166666D01*
X146114333Y-118166666D02*
X146181000Y-118100000D01*
X146181000Y-118100000D02*
X146214333Y-118033333D01*
X146014333Y-118866667D02*
X146014333Y-118933333D01*
X146014333Y-118933333D02*
X146047666Y-119000000D01*
X146047666Y-119000000D02*
X146081000Y-119033333D01*
X146081000Y-119033333D02*
X146147666Y-119066667D01*
X146147666Y-119066667D02*
X146281000Y-119100000D01*
X146281000Y-119100000D02*
X146447666Y-119100000D01*
X146447666Y-119100000D02*
X146581000Y-119066667D01*
X146581000Y-119066667D02*
X146647666Y-119033333D01*
X146647666Y-119033333D02*
X146681000Y-119000000D01*
X146681000Y-119000000D02*
X146714333Y-118933333D01*
X146714333Y-118933333D02*
X146714333Y-118866667D01*
X146714333Y-118866667D02*
X146681000Y-118800000D01*
X146681000Y-118800000D02*
X146647666Y-118766667D01*
X146647666Y-118766667D02*
X146581000Y-118733333D01*
X146581000Y-118733333D02*
X146447666Y-118700000D01*
X146447666Y-118700000D02*
X146281000Y-118700000D01*
X146281000Y-118700000D02*
X146147666Y-118733333D01*
X146147666Y-118733333D02*
X146081000Y-118766667D01*
X146081000Y-118766667D02*
X146047666Y-118800000D01*
X146047666Y-118800000D02*
X146014333Y-118866667D01*
M02*
