%TF.GenerationSoftware,KiCad,Pcbnew,7.0.1*%
%TF.CreationDate,2023-05-16T11:07:41+09:00*%
%TF.ProjectId,trace,74726163-652e-46b6-9963-61645f706362,rev?*%
%TF.SameCoordinates,Original*%
%TF.FileFunction,Soldermask,Top*%
%TF.FilePolarity,Negative*%
%FSLAX46Y46*%
G04 Gerber Fmt 4.6, Leading zero omitted, Abs format (unit mm)*
G04 Created by KiCad (PCBNEW 7.0.1) date 2023-05-16 11:07:41*
%MOMM*%
%LPD*%
G01*
G04 APERTURE LIST*
G04 Aperture macros list*
%AMHorizOval*
0 Thick line with rounded ends*
0 $1 width*
0 $2 $3 position (X,Y) of the first rounded end (center of the circle)*
0 $4 $5 position (X,Y) of the second rounded end (center of the circle)*
0 Add line between two ends*
20,1,$1,$2,$3,$4,$5,0*
0 Add two circle primitives to create the rounded ends*
1,1,$1,$2,$3*
1,1,$1,$4,$5*%
%AMRotRect*
0 Rectangle, with rotation*
0 The origin of the aperture is its center*
0 $1 length*
0 $2 width*
0 $3 Rotation angle, in degrees counterclockwise*
0 Add horizontal line*
21,1,$1,$2,0,0,$3*%
G04 Aperture macros list end*
%ADD10C,1.600000*%
%ADD11O,1.600000X1.600000*%
%ADD12R,1.368000X1.368000*%
%ADD13C,1.368000*%
%ADD14R,1.700000X1.700000*%
%ADD15O,1.700000X1.700000*%
%ADD16R,1.530000X1.530000*%
%ADD17C,1.530000*%
%ADD18C,1.524000*%
%ADD19RotRect,1.350000X1.350000X310.000000*%
%ADD20HorizOval,1.350000X0.000000X0.000000X0.000000X0.000000X0*%
%ADD21R,1.508000X1.508000*%
%ADD22C,1.508000*%
%ADD23R,1.524000X1.524000*%
%ADD24R,1.350000X1.350000*%
%ADD25O,1.350000X1.350000*%
%ADD26HorizOval,1.600000X0.000000X0.000000X0.000000X0.000000X0*%
%ADD27RotRect,1.350000X1.350000X50.000000*%
%ADD28HorizOval,1.350000X0.000000X0.000000X0.000000X0.000000X0*%
%ADD29RotRect,1.368000X1.368000X130.000000*%
%ADD30R,1.600000X1.600000*%
%ADD31HorizOval,1.600000X0.000000X0.000000X0.000000X0.000000X0*%
%ADD32RotRect,1.368000X1.368000X230.000000*%
%ADD33R,1.995000X1.995000*%
%ADD34C,1.995000*%
G04 APERTURE END LIST*
D10*
%TO.C,R3*%
X122417500Y-60162500D03*
D11*
X122417500Y-52542500D03*
%TD*%
D12*
%TO.C,U9*%
X162787500Y-62392500D03*
D13*
X162787500Y-58292500D03*
X160247500Y-58292500D03*
X160247500Y-62392500D03*
%TD*%
D14*
%TO.C,C2*%
X156217500Y-105417500D03*
D15*
X156217500Y-102877500D03*
%TD*%
D10*
%TO.C,R2*%
X101817500Y-66852500D03*
D11*
X101817500Y-59232500D03*
%TD*%
D10*
%TO.C,R7*%
X156217500Y-62352500D03*
D11*
X156217500Y-54732500D03*
%TD*%
D16*
%TO.C,U1*%
X116037500Y-115762500D03*
D17*
X118577500Y-115762500D03*
X121117500Y-115762500D03*
X123657500Y-115762500D03*
X126197500Y-115762500D03*
X128737500Y-115762500D03*
X131277500Y-115762500D03*
X133817500Y-115762500D03*
X136357500Y-115762500D03*
X138897500Y-115762500D03*
X141437500Y-115762500D03*
X143977500Y-115762500D03*
X146517500Y-115762500D03*
X149057500Y-115762500D03*
X151597500Y-115762500D03*
D16*
X116037500Y-100522500D03*
D17*
X118577500Y-100522500D03*
X121117500Y-100522500D03*
X123657500Y-100522500D03*
X126197500Y-100522500D03*
X128737500Y-100522500D03*
X131277500Y-100522500D03*
X133817500Y-100522500D03*
X136357500Y-100522500D03*
X138897500Y-100522500D03*
X141437500Y-100522500D03*
X143977500Y-100522500D03*
X146517500Y-100522500D03*
X149057500Y-100522500D03*
X151597500Y-100522500D03*
%TD*%
D14*
%TO.C,J1*%
X113097500Y-120842500D03*
D15*
X115637500Y-120842500D03*
X118177500Y-120842500D03*
X120717500Y-120842500D03*
X123257500Y-120842500D03*
X125797500Y-120842500D03*
%TD*%
D18*
%TO.C,U14*%
X126197500Y-95832500D03*
X126197500Y-93292500D03*
X126197500Y-90752500D03*
X126197500Y-88212500D03*
X126197500Y-85672500D03*
X126197500Y-83132500D03*
X126197500Y-80592500D03*
X126197500Y-78052500D03*
X141437500Y-78052500D03*
X141437500Y-80592500D03*
X141437500Y-83132500D03*
X141437500Y-85672500D03*
X141437500Y-88212500D03*
X141437500Y-90752500D03*
X141437500Y-93292500D03*
X141437500Y-95832500D03*
%TD*%
D10*
%TO.C,R10*%
X126027500Y-110842500D03*
D11*
X118407500Y-110842500D03*
%TD*%
D19*
%TO.C,J2*%
X163797802Y-71852881D03*
D20*
X165083377Y-73384970D03*
X162265713Y-73138456D03*
X163551288Y-74670545D03*
X160733624Y-74424031D03*
X162019199Y-75956120D03*
%TD*%
D21*
%TO.C,S2*%
X146903000Y-96192500D03*
D22*
X153403000Y-96192500D03*
X146903000Y-91692500D03*
X153403000Y-91692500D03*
%TD*%
D10*
%TO.C,R5*%
X136517500Y-59152500D03*
D11*
X136517500Y-51532500D03*
%TD*%
D10*
%TO.C,R4*%
X132317500Y-59152500D03*
D11*
X132317500Y-51532500D03*
%TD*%
D18*
%TO.C,U12*%
X141877500Y-104192500D03*
X144417500Y-104192500D03*
X146957500Y-104192500D03*
D23*
X141877500Y-112292500D03*
D18*
X144417500Y-112292500D03*
X146957500Y-112292500D03*
%TD*%
D24*
%TO.C,J4*%
X164956500Y-91970500D03*
D25*
X166956500Y-91970500D03*
X164956500Y-93970500D03*
X166956500Y-93970500D03*
X164956500Y-95970500D03*
X166956500Y-95970500D03*
%TD*%
D10*
%TO.C,R14*%
X164523480Y-79113871D03*
D26*
X169421522Y-84951130D03*
%TD*%
D24*
%TO.C,J5*%
X101329500Y-92478500D03*
D25*
X103329500Y-92478500D03*
X101329500Y-94478500D03*
X103329500Y-94478500D03*
X101329500Y-96478500D03*
X103329500Y-96478500D03*
%TD*%
D14*
%TO.C,J7*%
X143192500Y-120817500D03*
D15*
X145732500Y-120817500D03*
X148272500Y-120817500D03*
X150812500Y-120817500D03*
X153352500Y-120817500D03*
X155892500Y-120817500D03*
%TD*%
D27*
%TO.C,J3*%
X103075624Y-73257969D03*
D28*
X104361199Y-71725880D03*
X104607713Y-74543544D03*
X105893288Y-73011455D03*
X106139802Y-75829119D03*
X107425377Y-74297031D03*
%TD*%
D14*
%TO.C,C1*%
X156217500Y-111667500D03*
D15*
X156217500Y-114207500D03*
%TD*%
D29*
%TO.C,U11*%
X179172449Y-105405091D03*
D13*
X182313231Y-102769662D03*
X180680551Y-100823909D03*
X177539769Y-103459338D03*
%TD*%
D12*
%TO.C,U8*%
X173004291Y-67092500D03*
D13*
X173004291Y-62992500D03*
X170464291Y-62992500D03*
X170464291Y-67092500D03*
%TD*%
D18*
%TO.C,SW1*%
X104117500Y-106402500D03*
X104117500Y-108942500D03*
X104117500Y-111482500D03*
%TD*%
D10*
%TO.C,R6*%
X146317500Y-60052500D03*
D11*
X146317500Y-52432500D03*
%TD*%
D30*
%TO.C,C3*%
X158562388Y-93842500D03*
D10*
X160562388Y-93842500D03*
%TD*%
%TO.C,R12*%
X98737480Y-85459130D03*
D31*
X103635522Y-79621871D03*
%TD*%
D10*
%TO.C,R9*%
X95435480Y-82411130D03*
D31*
X100333522Y-76573871D03*
%TD*%
D12*
%TO.C,U4*%
X128687500Y-57692500D03*
D13*
X128687500Y-53592500D03*
X126147500Y-53592500D03*
X126147500Y-57692500D03*
%TD*%
D18*
%TO.C,U13*%
X121117500Y-83442500D03*
X113517500Y-83392500D03*
%TD*%
D14*
%TO.C,J6*%
X162717500Y-114067500D03*
D15*
X162717500Y-116607500D03*
%TD*%
D32*
%TO.C,U10*%
X90619231Y-103459338D03*
D13*
X87478449Y-100823909D03*
X85845769Y-102769662D03*
X88986551Y-105405091D03*
%TD*%
D12*
%TO.C,U5*%
X118600710Y-59442500D03*
D13*
X118600710Y-55342500D03*
X116060710Y-55342500D03*
X116060710Y-59442500D03*
%TD*%
D21*
%TO.C,S1*%
X113967500Y-95992500D03*
D22*
X120467500Y-95992500D03*
X113967500Y-91492500D03*
X120467500Y-91492500D03*
%TD*%
D10*
%TO.C,R1*%
X112217500Y-63252500D03*
D11*
X112217500Y-55632500D03*
%TD*%
D10*
%TO.C,R8*%
X166717500Y-65952500D03*
D11*
X166717500Y-58332500D03*
%TD*%
D12*
%TO.C,U7*%
X142587500Y-57692500D03*
D13*
X142587500Y-53592500D03*
X140047500Y-53592500D03*
X140047500Y-57692500D03*
%TD*%
D10*
%TO.C,R13*%
X167698480Y-76446871D03*
D26*
X172596522Y-82284130D03*
%TD*%
D12*
%TO.C,U2*%
X97657500Y-68042500D03*
D13*
X97657500Y-63942500D03*
X95117500Y-63942500D03*
X95117500Y-68042500D03*
%TD*%
D10*
%TO.C,R11*%
X118607500Y-105342500D03*
D11*
X126227500Y-105342500D03*
%TD*%
D12*
%TO.C,U6*%
X152287500Y-59092500D03*
D13*
X152287500Y-54992500D03*
X149747500Y-54992500D03*
X149747500Y-59092500D03*
%TD*%
D33*
%TO.C,\u4E09\u7AEF\u5B501*%
X165592500Y-108382500D03*
D34*
X165592500Y-105842500D03*
X165592500Y-103302500D03*
%TD*%
D12*
%TO.C,U3*%
X108087500Y-63092500D03*
D13*
X108087500Y-58992500D03*
X105547500Y-58992500D03*
X105547500Y-63092500D03*
%TD*%
M02*
